<?xml version="1.0" encoding="UTF-8"?>
<svg version="1.1" xmlns="http://www.w3.org/2000/svg" width="500" height="500">
<path d="M0 0 C1.06064667 0.00054382 2.12129333 0.00108765 3.21408081 0.00164795 C19.68660284 0.04045101 35.55543983 0.75390811 51.6875 4.375 C52.6784668 4.59462402 53.66943359 4.81424805 54.69042969 5.04052734 C101.85776505 15.81444342 142.78042841 39.10100778 177.6875 72.375 C178.48671875 73.13296875 179.2859375 73.8909375 180.109375 74.671875 C185.79200286 80.19774071 190.78810638 86.15144595 195.6875 92.375 C196.491875 93.385625 197.29625 94.39625 198.125 95.4375 C229.23138762 134.88042392 251.30591863 186.49601293 250.6875 237.375 C249.0375 237.705 247.3875 238.035 245.6875 238.375 C245.6875 246.295 245.6875 254.215 245.6875 262.375 C247.3375 262.705 248.9875 263.035 250.6875 263.375 C251.66617855 296.91774344 240.81562903 333.98385904 224.81347656 363.30859375 C223.52999832 365.66404906 222.27765527 368.03509203 221.0234375 370.40625 C216.13943605 379.55316112 211.08572124 388.18733661 204.6875 396.375 C204.01589844 397.29796875 203.34429687 398.2209375 202.65234375 399.171875 C190.0779445 416.42458975 175.56013762 432.25971445 158.6875 445.375 C157.21410156 446.55642578 157.21410156 446.55642578 155.7109375 447.76171875 C133.38172099 465.53301996 107.76020376 479.37558649 80.6875 488.375 C79.85702148 488.65279297 79.02654297 488.93058594 78.17089844 489.21679688 C65.88716299 493.25906367 53.44881565 496.28298104 40.6875 498.375 C39.66841553 498.55305176 38.64933105 498.73110352 37.59936523 498.91455078 C25.55872291 500.79540215 13.53624855 500.77229129 1.375 500.75 C0.26289154 500.74945618 -0.84921692 500.74891235 -1.99502563 500.74835205 C-18.4398192 500.71133124 -34.23910485 500.15411885 -50.3125 496.375 C-51.28493652 496.15537598 -52.25737305 495.93575195 -53.25927734 495.70947266 C-60.01397669 494.15728691 -66.67489687 492.36749218 -73.3125 490.375 C-74.14910156 490.12411621 -74.98570312 489.87323242 -75.84765625 489.61474609 C-105.75964864 480.40057253 -134.38183952 464.51939623 -158.3125 444.375 C-158.82989746 443.94638672 -159.34729492 443.51777344 -159.88037109 443.07617188 C-172.56692306 432.55829253 -184.18522849 421.41659425 -194.3125 408.375 C-195.11171875 407.36953125 -195.9109375 406.3640625 -196.734375 405.328125 C-227.01890551 366.96732582 -252.04992664 313.25699661 -249.3125 263.375 C-247.9925 263.045 -246.6725 262.715 -245.3125 262.375 C-245.3125 254.455 -245.3125 246.535 -245.3125 238.375 C-246.6325 238.045 -247.9525 237.715 -249.3125 237.375 C-249.57735214 229.620173 -248.79715471 222.22219017 -247.625 214.5625 C-247.44420898 213.37688477 -247.26341797 212.19126953 -247.07714844 210.96972656 C-241.09357273 173.08054275 -227.22458578 134.77679591 -203.3125 104.375 C-202.64347656 103.45589844 -201.97445312 102.53679687 -201.28515625 101.58984375 C-188.7110698 84.33173956 -174.18829842 68.49274247 -157.3125 55.375 C-155.83910156 54.19357422 -155.83910156 54.19357422 -154.3359375 52.98828125 C-145.73671703 46.14943537 -136.66801278 40.12692385 -127.3125 34.375 C-126.66974121 33.97925781 -126.02698242 33.58351562 -125.36474609 33.17578125 C-87.52744934 10.19298167 -43.93246922 -0.08472333 0 0 Z " fill="#C51616" transform="translate(249.3125,-0.375)"/>
<path d="M0 0 C1.32 0 2.64 0 4 0 C4 8.91 4 17.82 4 27 C57.13 27 110.26 27 165 27 C166.98 32.94 166.98 32.94 169 39 C172.79651289 47.98508052 177.42760249 55.757194 184 63 C184.73863281 63.83144531 185.47726563 64.66289062 186.23828125 65.51953125 C200.02139329 80.20497468 220.24407916 90.61850553 240.515625 91.43359375 C242.76029696 91.45681279 245.00529803 91.45760949 247.25 91.4375 C249.02225952 91.42722778 249.02225952 91.42722778 250.83032227 91.41674805 C275.57871658 90.96412655 297.25475694 80.2656634 314.32421875 62.59375 C323.20311722 52.12746497 328.1111704 39.71095697 333 27 C386.13 27 439.26 27 494 27 C494 26.34 494 25.68 494 25 C495.65 25.33 497.3 25.66 499 26 C499.97867855 59.54274344 489.12812903 96.60885904 473.12597656 125.93359375 C471.84249832 128.28904906 470.59015527 130.66009203 469.3359375 133.03125 C464.45193605 142.17816112 459.39822124 150.81233661 453 159 C452.32839844 159.92296875 451.65679687 160.8459375 450.96484375 161.796875 C438.3904445 179.04958975 423.87263762 194.88471445 407 208 C406.01773437 208.78761719 405.03546875 209.57523438 404.0234375 210.38671875 C381.69422099 228.15801996 356.07270376 242.00058649 329 251 C327.75428223 251.41668945 327.75428223 251.41668945 326.48339844 251.84179688 C314.19966299 255.88406367 301.76131565 258.90798104 289 261 C287.98091553 261.17805176 286.96183105 261.35610352 285.91186523 261.53955078 C273.87122291 263.42040215 261.84874855 263.39729129 249.6875 263.375 C248.57539154 263.37445618 247.46328308 263.37391235 246.31747437 263.37335205 C229.8726808 263.33633124 214.07339515 262.77911885 198 259 C197.02756348 258.78037598 196.05512695 258.56075195 195.05322266 258.33447266 C188.29852331 256.78228691 181.63760313 254.99249218 175 253 C173.74509766 252.62367432 173.74509766 252.62367432 172.46484375 252.23974609 C142.55285136 243.02557253 113.93066048 227.14439623 90 207 C89.48260254 206.57138672 88.96520508 206.14277344 88.43212891 205.70117188 C75.74557694 195.18329253 64.12727151 184.04159425 54 171 C52.80117187 169.49179687 52.80117187 169.49179687 51.578125 167.953125 C21.29359449 129.59232582 -3.73742664 75.88199661 -1 26 C0.32 25.67 1.64 25.34 3 25 C3 17.08 3 9.16 3 1 C2.01 0.67 1.02 0.34 0 0 Z " fill="#D8D3D3" transform="translate(1,237)"/>
<path d="M0 0 C0.95261719 0.23332031 1.90523438 0.46664062 2.88671875 0.70703125 C17.2440544 4.57450543 30.08809851 11.96105063 41 22 C41.6909375 22.5878125 42.381875 23.175625 43.09375 23.78125 C50.85726512 30.80538273 57.43832369 41.14713844 61 51 C61.33 51.79019531 61.66 52.58039063 62 53.39453125 C65.76397012 62.49569336 67 68.77917176 67 79 C119.47 79 171.94 79 226 79 C225.67 87.91 225.34 96.82 225 106 C172.2 106 119.4 106 65 106 C64.67 107.98 64.34 109.96 64 112 C57.77890741 132.95915719 43.13702739 150.65712289 24.140625 161.19140625 C4.02159792 171.87061978 -19.74971096 175.96499797 -42.1875 170.5 C-65.24918851 162.98045977 -85.70943528 147.7152365 -97 126 C-103 113.41856925 -103 113.41856925 -103 107 C-156.13 107 -209.26 107 -264 107 C-264 97.76 -264 88.52 -264 79 C-211.86 79 -159.72 79 -106 79 C-105.67 74.38 -105.34 69.76 -105 65 C-99.18239851 42.45427797 -84.36979673 22.21727729 -64.5 10.1875 C-45.48078393 -0.90567318 -21.62190583 -6.20329968 0 0 Z " fill="#131212" transform="translate(269,157)"/>
<path d="M0 0 C12.48008761 9.5357747 22.30187514 22.70328062 26.19140625 38.0859375 C26.39378906 38.76398438 26.59617187 39.44203125 26.8046875 40.140625 C30.19334759 52.72707677 28.88275106 67.0196443 24.06640625 79.0234375 C23.60053101 80.19966675 23.60053101 80.19966675 23.12524414 81.3996582 C20.57651446 87.60227347 17.46034885 92.89506363 13.19140625 98.0859375 C12.74539063 98.69179688 12.299375 99.29765625 11.83984375 99.921875 C2.15958224 112.43262233 -14.2124736 121.05556702 -29.80859375 123.0859375 C-50.50311379 124.35588801 -69.1533174 121.24542624 -85.2421875 107.21875 C-98.11443782 95.22312567 -107.30005581 78.66089659 -108.1796875 60.8359375 C-108.59079416 41.77478747 -105.03605757 28.45830731 -93.80859375 13.0859375 C-93.31617188 12.38984375 -92.82375 11.69375 -92.31640625 10.9765625 C-70.09721012 -17.68488577 -28.2737359 -19.26861 0 0 Z " fill="#B2AFAE" transform="translate(289.80859375,186.9140625)"/>
<path d="M0 0 C12.48008761 9.5357747 22.30187514 22.70328062 26.19140625 38.0859375 C26.39378906 38.76398438 26.59617187 39.44203125 26.8046875 40.140625 C30.19334759 52.72707677 28.88275106 67.0196443 24.06640625 79.0234375 C23.60053101 80.19966675 23.60053101 80.19966675 23.12524414 81.3996582 C20.57651446 87.60227347 17.46034885 92.89506363 13.19140625 98.0859375 C12.74539063 98.69179688 12.299375 99.29765625 11.83984375 99.921875 C2.15958224 112.43262233 -14.2124736 121.05556702 -29.80859375 123.0859375 C-50.50311379 124.35588801 -69.1533174 121.24542624 -85.2421875 107.21875 C-98.11443782 95.22312567 -107.30005581 78.66089659 -108.1796875 60.8359375 C-108.59079416 41.77478747 -105.03605757 28.45830731 -93.80859375 13.0859375 C-93.31617188 12.38984375 -92.82375 11.69375 -92.31640625 10.9765625 C-70.09721012 -17.68488577 -28.2737359 -19.26861 0 0 Z M-61.80859375 9.0859375 C-62.65292969 9.51003906 -63.49726563 9.93414062 -64.3671875 10.37109375 C-76.65069585 17.0830869 -85.361699 27.9150055 -89.74609375 41.2109375 C-93.006392 55.42091667 -91.475816 69.20956474 -84.19921875 81.890625 C-82.52310057 84.4201795 -80.74698506 86.75253787 -78.80859375 89.0859375 C-78.23625 89.79363281 -77.66390625 90.50132812 -77.07421875 91.23046875 C-69.97329845 99.16589891 -58.31426383 105.21511657 -47.6862793 106.30322266 C-32.00018131 107.12657762 -18.66416449 104.67350428 -6.28369141 94.43798828 C2.5385595 86.35165503 9.34109804 74.76482854 10.39868164 62.7265625 C10.49462179 60.21758981 10.52061582 57.72166954 10.50390625 55.2109375 C10.4982666 54.32615723 10.49262695 53.44137695 10.48681641 52.52978516 C10.22211224 38.32224789 4.36093443 27.01333406 -5.80859375 17.0859375 C-9.835109 13.46729798 -9.835109 13.46729798 -14.80859375 12.0859375 C-14.80859375 11.4259375 -14.80859375 10.7659375 -14.80859375 10.0859375 C-16.36880242 9.43458825 -17.93187954 8.79010786 -19.49609375 8.1484375 C-20.36621094 7.78878906 -21.23632812 7.42914063 -22.1328125 7.05859375 C-33.95736591 2.76032543 -50.73057322 3.14930213 -61.80859375 9.0859375 Z " fill="#D4CFCF" transform="translate(289.80859375,186.9140625)"/>
<path d="M0 0 C0.66 0.33 1.32 0.66 2 1 C2 1.66 2 2.32 2 3 C3.2684375 3.1546875 3.2684375 3.1546875 4.5625 3.3125 C8.41442701 4.0828854 11.44075031 5.36274514 15 7 C15 7.66 15 8.32 15 9 C14.34 9 13.68 9 13 9 C13 9.66 13 10.32 13 11 C13.556875 10.731875 14.11375 10.46375 14.6875 10.1875 C17 10 17 10 19.75 12.3125 C22 15 22 15 22 17 C22.66 17 23.32 17 24 17 C24.50559908 18.43554025 25.0042749 19.8735202 25.5 21.3125 C25.7784375 22.11300781 26.056875 22.91351563 26.34375 23.73828125 C27 26 27 26 27 29 C26.34 29 25.68 29 25 29 C25 29.66 25 30.32 25 31 C25.66 31 26.32 31 27 31 C27.495 34.96 27.495 34.96 28 39 C27.01 39 26.02 39 25 39 C24.67 40.65 24.34 42.3 24 44 C23.34 44 22.68 44 22 44 C21.896875 44.7425 21.79375 45.485 21.6875 46.25 C20.95066203 49.1973519 20.05200858 50.78383074 18 53 C17.34 53 16.68 53 16 53 C15.79375 53.5775 15.5875 54.155 15.375 54.75 C12.40545137 59.6092614 7.29004653 61.55213181 2 63 C-0.71462262 63.21071163 -3.29069808 63.32523168 -6 63.3125 C-7.02867187 63.33666992 -7.02867187 63.33666992 -8.078125 63.36132812 C-12.79605034 63.36582996 -15.95808441 62.39357189 -20 60 C-20 59.34 -20 58.68 -20 58 C-20.556875 57.773125 -21.11375 57.54625 -21.6875 57.3125 C-28.88041945 53.2300322 -31.66239807 46.72900723 -34 39 C-34.31421864 34.85124879 -33.77848787 31.56700428 -32.5 27.625 C-32.2215625 26.75101563 -31.943125 25.87703125 -31.65625 24.9765625 C-31.4396875 24.32429688 -31.223125 23.67203125 -31 23 C-31.99 23.66 -32.98 24.32 -34 25 C-32.88092994 17.68102453 -28.78279682 12.06432581 -22.9375 7.625 C-21.63618513 6.73345031 -20.32458228 5.8565997 -19 5 C-18.071875 4.360625 -17.14375 3.72125 -16.1875 3.0625 C-14 2 -14 2 -11 3 C-11 2.34 -11 1.68 -11 1 C-5.555 1.495 -5.555 1.495 0 2 C0 1.34 0 0.68 0 0 Z " fill="#DAD4D4" transform="translate(254,209)"/>
<path d="M0 0 C0.33 0 0.66 0 1 0 C1.02747059 2.14575863 1.04660463 4.29162441 1.0625 6.4375 C1.07410156 7.63246094 1.08570313 8.82742187 1.09765625 10.05859375 C0.9021017 17.95117534 -0.17831799 24.59347401 -3.125 31.9375 C-3.59087524 33.11372925 -3.59087524 33.11372925 -4.06616211 34.3137207 C-6.61489179 40.51633597 -9.7310574 45.80912613 -14 51 C-14.66902344 51.90878906 -14.66902344 51.90878906 -15.3515625 52.8359375 C-25.03182401 65.34668483 -41.40387985 73.96962952 -57 76 C-77.69452004 77.26995051 -96.34472365 74.15948874 -112.43359375 60.1328125 C-122.46478642 50.78476412 -128.83131466 40.04395091 -133 27 C-133 26.34 -133 25.68 -133 25 C-132.34 25 -131.68 25 -131 25 C-130.69707031 25.78503906 -130.39414063 26.57007813 -130.08203125 27.37890625 C-127.60549448 33.58929845 -125.01641151 38.68096854 -121 44 C-120.649375 44.9075 -120.29875 45.815 -119.9375 46.75 C-118.8029819 49.47284343 -117.37446804 50.33787237 -115 52 C-115 52.66 -115 53.32 -115 54 C-114.34 54 -113.68 54 -113 54 C-111.33333333 55.66666667 -109.66666667 57.33333333 -108 59 C-107.071875 59.556875 -106.14375 60.11375 -105.1875 60.6875 C-104.465625 61.120625 -103.74375 61.55375 -103 62 C-103 62.66 -103 63.32 -103 64 C-102.28199219 64.2784375 -101.56398437 64.556875 -100.82421875 64.84375 C-98.09283374 65.96199338 -95.46791353 67.21347764 -92.8125 68.5 C-77.26732095 75.48914549 -59.5971196 74.63129397 -43.8125 68.828125 C-38.43067733 66.69122482 -33.7100277 64.34659863 -29 61 C-28.34 61 -27.68 61 -27 61 C-27 60.34 -27 59.68 -27 59 C-25.35546875 57.4140625 -25.35546875 57.4140625 -23.1875 55.625 C-20.93749143 53.76433718 -19.09649715 52.13127297 -17.36328125 49.7734375 C-16.91339844 49.18820312 -16.46351563 48.60296875 -16 48 C-15.34 48 -14.68 48 -14 48 C-13.62875 47.2265625 -13.62875 47.2265625 -13.25 46.4375 C-12 44 -12 44 -10.05859375 40.84375 C-7.88312109 37.04433993 -6.78305869 33.30920616 -5.8125 29.0625 C-5.5659668 28.06573242 -5.5659668 28.06573242 -5.31445312 27.04882812 C-4.19778071 22.387738 -3.52685653 17.76299593 -3 13 C-2.34 13 -1.68 13 -1 13 C-0.67 8.71 -0.34 4.42 0 0 Z " fill="#5F5C5B" transform="translate(317,234)"/>
<path d="M0 0 C3.30211722 2.67314251 4.49104296 6.16293782 6 10 C6.33257812 10.79148438 6.66515625 11.58296875 7.0078125 12.3984375 C10.77756058 21.47375695 12 27.80823736 12 38 C64.47 38 116.94 38 171 38 C170.67 38.99 170.34 39.98 170 41 C166.65545317 42.11484894 164.44268917 41.69816348 161.0078125 41.26171875 C157.08384637 40.92028274 153.18707715 40.88130268 149.25 40.875 C148.51700684 40.87056885 147.78401367 40.8661377 147.02880859 40.86157227 C144.13444209 40.86917337 141.38715886 40.91864575 138.54832554 41.51517391 C136.0128708 41.99755129 133.9054285 42.03817388 131.33616638 41.89002991 C130.44045709 41.84326079 129.54474779 41.79649168 128.62189579 41.74830532 C127.66055446 41.69351544 126.69921312 41.63872557 125.70874023 41.58227539 C113.35734872 40.96356401 101.02503232 40.78194979 88.66015625 40.68359375 C86.42858059 40.66294468 84.19700814 40.64194667 81.96543884 40.62062073 C76.17730354 40.56621881 70.38913797 40.5164593 64.60095215 40.46777344 C58.66037397 40.41694847 52.71983812 40.3615855 46.77929688 40.30664062 C35.18623432 40.20006546 23.59313454 40.09841028 12 40 C11.50439639 38.72248009 11.01291745 37.44335951 10.52319336 36.16357422 C10.24906113 35.45143768 9.97492889 34.73930115 9.69248962 34.00558472 C8.88714756 31.67315738 8.63491069 29.58696351 8.5625 27.125 C8.21990908 22.39432965 6.87390736 18.6313013 4.9375 14.32421875 C3.95730363 11.89414859 3.43806601 9.57820102 3 7 C2.34 7 1.68 7 1 7 C0.67 4.69 0.34 2.38 0 0 Z " fill="#4B0707" transform="translate(324,198)"/>
<path d="M0 0 C13.90653805 13.90653805 14.52893411 53.34579083 15 72 C12.525 72.495 12.525 72.495 10 73 C10 81.58 10 90.16 10 99 C-43.13 99 -96.26 99 -151 99 C-151 98.67 -151 98.34 -151 98 C-98.2 98 -45.4 98 9 98 C9 89.42 9 80.84 9 72 C9.99 70.515 9.99 70.515 11 69 C11.66 69 12.32 69 13 69 C13 64.38 13 59.76 13 55 C12.34 55 11.68 55 11 55 C9.58999581 52.17999162 9.62391619 49.40642297 9.37890625 46.2890625 C9.1162296 43.97512786 9.1162296 43.97512786 7.97265625 42.0078125 C6.80325271 39.59386302 6.79662139 37.91487268 6.875 35.25 C6.89304687 34.45078125 6.91109375 33.6515625 6.9296875 32.828125 C6.95289063 32.22484375 6.97609375 31.6215625 7 31 C6.34 31 5.68 31 5 31 C4.68692614 29.29177174 4.37456992 27.58341195 4.0625 25.875 C3.87945312 24.8746875 3.69640625 23.874375 3.5078125 22.84375 C3.12361043 20.69221839 2.77262888 18.53471945 2.4375 16.375 C2.24190536 14.05280361 2.24190536 14.05280361 1 13 C0.76518307 10.81707226 0.58636677 8.62796826 0.4375 6.4375 C0.35371094 5.23996094 0.26992188 4.04242188 0.18359375 2.80859375 C0.12300781 1.88175781 0.06242188 0.95492187 0 0 Z M3 33 C4 37 4 37 4 37 Z " fill="#695455" transform="translate(485,165)"/>
<path d="M0 0 C1.5 1.375 1.5 1.375 3 3 C3 3.66 3 4.32 3 5 C3.66 5 4.32 5 5 5 C5 5.66 5 6.32 5 7 C6.65 6.34 8.3 5.68 10 5 C10 6.98 10 8.96 10 11 C10.66 11.33 11.32 11.66 12 12 C11.731875 12.721875 11.46375 13.44375 11.1875 14.1875 C11.125625 15.115625 11.06375 16.04375 11 17 C13.35412766 19.60414714 13.35412766 19.60414714 16 22 C16.165 22.70125 16.33 23.4025 16.5 24.125 C16.85670228 26.29236458 16.85670228 26.29236458 19.4375 27.625 C20.283125 28.07875 21.12875 28.5325 22 29 C24.35953094 31.35953094 24.49141413 32.77895617 25 36 C25.66 36 26.32 36 27 36 C27.061875 36.721875 27.12375 37.44375 27.1875 38.1875 C28.2537488 41.87836123 30.21228792 43.41141021 33 46 C36 49.62068966 36 49.62068966 36 52 C37.98 52 39.96 52 42 52 C41.855625 52.680625 41.71125 53.36125 41.5625 54.0625 C42.25995702 58.74542568 45.61932804 60.90809377 49 64 C49.886875 64.969375 50.77375 65.93875 51.6875 66.9375 C53.98109049 69.44374323 53.98109049 69.44374323 58 69 C58 69.66 58 70.32 58 71 C58.99 71.495 58.99 71.495 60 72 C59.67 72.66 59.34 73.32 59 74 C60.32 74.66 61.64 75.32 63 76 C63 76.66 63 77.32 63 78 C64.32 78 65.64 78 67 78 C67.66 77.34 68.32 76.68 69 76 C70.485 76.495 70.485 76.495 72 77 C71.34 77.66 70.68 78.32 70 79 C70.01382865 81.05714832 70.01382865 81.05714832 71 83 C72.9837767 84.28436734 72.9837767 84.28436734 75 85 C75 85.66 75 86.32 75 87 C75.66 87 76.32 87 77 87 C77 87.66 77 88.32 77 89 C78.65 89 80.3 89 82 89 C82 89.99 82 90.98 82 92 C64.78940017 90.10872529 41.92500237 62.32421477 31.3125 49.5 C29.86617593 47.67361996 28.42887569 45.84006294 27 44 C26.20078125 42.99453125 25.4015625 41.9890625 24.578125 40.953125 C-0 9.81827711 -0 9.81827711 0 0 Z " fill="#B0A9A9" transform="translate(28,364)"/>
<path d="M0 0 C0.33 0 0.66 0 1 0 C1.18435731 5.43854074 0.85755495 10.45244384 -0.0078125 15.83203125 C-0.19230957 16.99065674 -0.37680664 18.14928223 -0.56689453 19.34301758 C-0.70981934 20.21982178 -0.85274414 21.09662598 -1 22 C-17.54165849 22.03040619 -34.08331746 22.05090585 -50.625 22.0625 C-52.44414539 22.06378403 -52.44414539 22.06378403 -54.3000412 22.06509399 C-89.87753089 22.0873036 -125.43407164 21.99692777 -161 21 C-161 20.67 -161 20.34 -161 20 C-108.86 20 -56.72 20 -3 20 C-2.67 15.38 -2.34 10.76 -2 6 C-1.34 4.02 -0.68 2.04 0 0 Z " fill="#5D0706" transform="translate(166,216)"/>
<path d="M0 0 C1.03511719 -0.00095673 2.07023437 -0.00191345 3.13671875 -0.00289917 C5.31510479 -0.00357663 7.49349289 -0.00175275 9.671875 0.00244141 C12.98962984 0.00779576 16.30724932 0.0024816 19.625 -0.00390625 C21.7500003 -0.00324539 23.87500051 -0.00196407 26 0 C26.98355469 -0.00202423 27.96710938 -0.00404846 28.98046875 -0.00613403 C37.2966508 0.02191516 44.42831237 0.50471218 52 4.1328125 C51.67 4.7928125 51.34 5.4528125 51 6.1328125 C47.21500842 7.30435751 45.49930831 7.36797841 41.87426758 5.66064453 C37.46302557 3.67382607 33.40785315 3.768288 28.63671875 3.875 C27.76352493 3.88161652 26.89033112 3.88823303 25.99067688 3.89505005 C23.22258051 3.9183141 20.45530751 3.96203175 17.6875 4.0078125 C14.90194179 4.04288118 12.11642677 4.07363534 9.33076477 4.09915161 C7.60232758 4.1161292 5.87393782 4.13927175 4.14567566 4.16915894 C-1.77870214 4.24346143 -1.77870214 4.24346143 -4 3.1328125 C-4.33 3.7928125 -4.66 4.4528125 -5 5.1328125 C-5 4.4728125 -5 3.8128125 -5 3.1328125 C-9.72422966 3.34586443 -9.72422966 3.34586443 -13.5625 5.6953125 C-15 7.1328125 -15 7.1328125 -18 7.3828125 C-21 7.1328125 -21 7.1328125 -24 6.1328125 C-26.24580028 6.54113982 -27.95574098 7.11068299 -30 8.1328125 C-30 6.8128125 -30 5.4928125 -30 4.1328125 C-24.555 3.6378125 -24.555 3.6378125 -19 3.1328125 C-19 2.4728125 -19 1.8128125 -19 1.1328125 C-12.63077728 0.187381 -6.43363371 -0.01324091 0 0 Z " fill="#A53737" transform="translate(237,-0.1328125)"/>
<path d="M0 0 C3.18559952 1.39633107 5.23943845 3.04557493 7.625 5.5625 C10.04521959 8.14015389 10.04521959 8.14015389 13 10 C13 10.66 13 11.32 13 12 C21.02055363 15.11841121 31.89490537 15.73328891 40 12.4375 C43.87464568 10.38186737 46.98524271 7.57455481 50.078125 4.48828125 C52.3627038 2.71912571 54.16410366 2.36671073 57 2 C57 5.78789993 56.11917714 6.31328599 53.5 8.9375 C46.41160909 15.67951229 40.34368296 17.41827677 30.66015625 18.5078125 C29.34337891 18.75144531 29.34337891 18.75144531 28 19 C27.67 19.66 27.34 20.32 27 21 C26.34 21 25.68 21 25 21 C25 20.34 25 19.68 25 19 C24.443125 18.82984375 23.88625 18.6596875 23.3125 18.484375 C15.05237542 15.86122733 8.61708365 13.52005046 3.2265625 6.48828125 C2.05047642 4.85615393 2.05047642 4.85615393 0 4 C0 2.68 0 1.36 0 0 Z " fill="#949090" transform="translate(221,257)"/>
<path d="M0 0 C0.78375 0.020625 1.5675 0.04125 2.375 0.0625 C0.15565836 3.39151247 -0.97183329 3.81273244 -4.625 5.0625 C-4.625 4.4025 -4.625 3.7425 -4.625 3.0625 C-6.4503125 3.7121875 -6.4503125 3.7121875 -8.3125 4.375 C-12.28129779 5.73770431 -16.18926488 6.55121462 -20.3125 7.3125 C-25.87319584 8.51008874 -28.20050752 10.02124201 -31.43359375 14.60546875 C-32.625 16.0625 -32.625 16.0625 -35.1875 16.5625 C-36.8457366 16.2223489 -38.49282742 15.82384746 -40.125 15.375 C-43.53064813 14.94929398 -44.82717457 16.17396783 -47.625 18.0625 C-48.511875 18.413125 -49.39875 18.76375 -50.3125 19.125 C-52.7677942 19.94553421 -52.7677942 19.94553421 -54.625 22.0625 C-54.955 21.0725 -55.285 20.0825 -55.625 19.0625 C-52.10798315 14.84207978 -48.0258914 13.20320481 -43.0625 11.1875 C-42.22984619 10.84452881 -41.39719238 10.50155762 -40.53930664 10.14819336 C-27.27400361 4.79203319 -14.39203122 0.24813847 0 0 Z " fill="#8D1517" transform="translate(196.625,6.9375)"/>
<path d="M0 0 C2.9386979 3.57721079 3.18911908 5.36658252 3 10 C3.51290732 13.96728872 3.51290732 13.96728872 6 17 C5.67 17.66 5.34 18.32 5 19 C5.268125 19.66 5.53625 20.32 5.8125 21 C7.20677691 24.52238378 7.85181128 27.97927126 8.53515625 31.6953125 C8.98029036 34.144901 8.98029036 34.144901 10 37 C10.66 37.33 11.32 37.66 12 38 C11.67 38.66 11.34 39.32 11 40 C11.2464344 42.8163932 11.85559954 45.41265984 13 48 C15.49034386 49.29660434 15.49034386 49.29660434 18 50 C18.8125 52.125 18.8125 52.125 19 54 C18.01 54.495 18.01 54.495 17 55 C17.66 57.31 18.32 59.62 19 62 C20.32 62.33 21.64 62.66 23 63 C23 63.66 23 64.32 23 65 C24.485 65.495 24.485 65.495 26 66 C25.67 67.32 25.34 68.64 25 70 C25.66 70.33 26.32 70.66 27 71 C26.67 71.66 26.34 72.32 26 73 C24.1875 72.8125 24.1875 72.8125 22 72 C9.56843301 53.62290097 -1.69256915 22.19146218 0 0 Z M18 47 C18.33 47.66 18.66 48.32 19 49 C18.34 48.67 17.68 48.34 17 48 C17.33 47.67 17.66 47.34 18 47 Z " fill="#AAA4A4" transform="translate(4,290)"/>
<path d="M0 0 C2.0625 0.4375 2.0625 0.4375 4 1 C2.63255997 4.23197407 1.29354445 5.81008003 -1.62109375 7.7421875 C-2.75768433 8.49580566 -2.75768433 8.49580566 -3.91723633 9.26464844 C-4.74892334 9.79606445 -5.58061035 10.32748047 -6.4375 10.875 C-7.30334717 11.43219727 -8.16919434 11.98939453 -9.0612793 12.56347656 C-16.61878441 17.32188122 -24.40731828 21.60661487 -32.3125 25.75 C-33.46226318 26.35827637 -34.61202637 26.96655273 -35.79663086 27.59326172 C-36.89112549 28.1554541 -37.98562012 28.71764648 -39.11328125 29.296875 C-40.08048096 29.79541992 -41.04768066 30.29396484 -42.04418945 30.80761719 C-45.36906357 32.14888135 -48.44558309 32.62430514 -52 33 C-51.01 31.02 -50.02 29.04 -49 27 C-48.01 27.33 -47.02 27.66 -46 28 C-45.01 27.34 -44.02 26.68 -43 26 C-40.95703125 25.5859375 -40.95703125 25.5859375 -38.8125 25.375 C-37.554375 25.25125 -36.29625 25.1275 -35 25 C-34.91773332 21.95613276 -35.02391783 19.92824652 -36 17 C-33.69 17 -31.38 17 -29 17 C-29 17.99 -29 18.98 -29 20 C-28.34 20 -27.68 20 -27 20 C-26.34 18.68 -25.68 17.36 -25 16 C-23.8553125 16.0928125 -23.8553125 16.0928125 -22.6875 16.1875 C-19.46952212 15.96298992 -19.06492043 15.33425788 -17 13 C-14.8125 11.8125 -14.8125 11.8125 -13 11 C-13.495 10.01 -13.495 10.01 -14 9 C-12.9275 8.87625 -11.855 8.7525 -10.75 8.625 C-7.62136385 8.10356064 -5.66519576 7.59911746 -3 6 C-3 5.34 -3 4.68 -3 4 C-2.01 4 -1.02 4 0 4 C-0.495 2.515 -0.495 2.515 -1 1 C-0.67 0.67 -0.34 0.34 0 0 Z " fill="#B7B1B1" transform="translate(396,448)"/>
<path d="M0 0 C0.66 0 1.32 0 2 0 C1.88933827 3.854717 1.75889604 7.70852562 1.625 11.5625 C1.5940625 12.64853516 1.563125 13.73457031 1.53125 14.85351562 C1.2002174 23.92932606 1.2002174 23.92932606 -0.1015625 27.96484375 C-1.3446767 31.29757365 -1.3446767 31.29757365 0 36 C3.63 36 7.26 36 11 36 C11 35.01 11 34.02 11 33 C12.485 33.495 12.485 33.495 14 34 C13.67 34.33 13.34 34.66 13 35 C25.54 35.33 38.08 35.66 51 36 C51 36.33 51 36.66 51 37 C32.52 37.33 14.04 37.66 -5 38 C-5 26.73913043 -5 26.73913043 -4.16015625 21.15234375 C-3.98419922 19.97091797 -3.80824219 18.78949219 -3.62695312 17.57226562 C-3.44068359 16.37279297 -3.25441406 15.17332031 -3.0625 13.9375 C-2.88009766 12.70322266 -2.69769531 11.46894531 -2.50976562 10.19726562 C-1.13699777 1.13699777 -1.13699777 1.13699777 0 0 Z " fill="#840B0D" transform="translate(5,199)"/>
<path d="M0 0 C0.33 0 0.66 0 1 0 C1.02747059 2.14575863 1.04660463 4.29162441 1.0625 6.4375 C1.07410156 7.63246094 1.08570313 8.82742187 1.09765625 10.05859375 C0.9021017 17.95117534 -0.17831799 24.59347401 -3.125 31.9375 C-3.4355835 32.72165283 -3.74616699 33.50580566 -4.06616211 34.3137207 C-6.61489179 40.51633597 -9.7310574 45.80912613 -14 51 C-14.66902344 51.90878906 -14.66902344 51.90878906 -15.3515625 52.8359375 C-20.71313581 59.7652223 -30.9740733 68.8475965 -39.67578125 70.51171875 C-40.54589844 70.56972656 -41.41601562 70.62773437 -42.3125 70.6875 C-43.19550781 70.75324219 -44.07851563 70.81898438 -44.98828125 70.88671875 C-45.65214844 70.92410156 -46.31601562 70.96148437 -47 71 C-44.40661127 69.27107418 -41.91706938 67.92458856 -39.125 66.5625 C-36.33329835 65.18699686 -33.66623537 63.79835053 -31 62.1875 C-29 61 -29 61 -27 61 C-27 60.34 -27 59.68 -27 59 C-25.35546875 57.4140625 -25.35546875 57.4140625 -23.1875 55.625 C-20.93749143 53.76433718 -19.09649715 52.13127297 -17.36328125 49.7734375 C-16.68845703 48.89558594 -16.68845703 48.89558594 -16 48 C-15.34 48 -14.68 48 -14 48 C-13.7525 47.484375 -13.505 46.96875 -13.25 46.4375 C-12 44 -12 44 -10.05859375 40.84375 C-7.88312109 37.04433993 -6.78305869 33.30920616 -5.8125 29.0625 C-5.64814453 28.39798828 -5.48378906 27.73347656 -5.31445312 27.04882812 C-4.19778071 22.387738 -3.52685653 17.76299593 -3 13 C-2.34 13 -1.68 13 -1 13 C-0.505 6.565 -0.505 6.565 0 0 Z " fill="#858282" transform="translate(317,234)"/>
<path d="M0 0 C0.66 0.99 1.32 1.98 2 3 C1.67 3.99 1.34 4.98 1 6 C1 5.34 1 4.68 1 4 C-8.51522247 8.18922405 -21.50567936 14.83664269 -26.25 24.5625 C-28.39434869 27.54927139 -30.27627186 27.77466611 -33.66796875 28.86328125 C-40.29040044 32.09130072 -45.43385953 38.22631389 -48 45 C-50.27158744 46.59011121 -52.52870728 47.76435364 -55 49 C-53.34298392 44.90210993 -50.42518472 41.97631158 -47.4375 38.8125 C-46.89810791 38.23661133 -46.35871582 37.66072266 -45.80297852 37.06738281 C-44.20848824 35.37195149 -42.60588479 33.68463491 -41 32 C-40.2059375 31.16339844 -39.411875 30.32679687 -38.59375 29.46484375 C-9.90839947 0 -9.90839947 0 0 0 Z " fill="#AA6B6A" transform="translate(113,41)"/>
<path d="M0 0 C1.5 1.375 1.5 1.375 3 3 C3 3.66 3 4.32 3 5 C3.66 5 4.32 5 5 5 C5 5.66 5 6.32 5 7 C6.65 6.34 8.3 5.68 10 5 C10 6.98 10 8.96 10 11 C10.66 11.33 11.32 11.66 12 12 C11.731875 12.721875 11.46375 13.44375 11.1875 14.1875 C11.125625 15.115625 11.06375 16.04375 11 17 C13.35412766 19.60414714 13.35412766 19.60414714 16 22 C16.165 22.70125 16.33 23.4025 16.5 24.125 C16.85670228 26.29236458 16.85670228 26.29236458 19.4375 27.625 C20.283125 28.07875 21.12875 28.5325 22 29 C24.35953094 31.35953094 24.49141413 32.77895617 25 36 C25.66 36 26.32 36 27 36 C27 37.65 27 39.3 27 41 C22.71962116 39.47830569 20.71906328 36.28417459 18.25 32.6875 C17.81534424 32.06593018 17.38068848 31.44436035 16.93286133 30.80395508 C12.70041415 24.68938839 8.77681899 18.40635594 5 12 C4.47019531 11.10667969 3.94039062 10.21335937 3.39453125 9.29296875 C0 3.40721289 0 3.40721289 0 0 Z " fill="#9E9999" transform="translate(28,364)"/>
<path d="M0 0 C0.33 0 0.66 0 1 0 C1.26455255 7.80430008 0.23545853 13.96951953 -1 22 C-35.98 22 -70.96 22 -107 22 C-107 21.67 -107 21.34 -107 21 C-72.68 21 -38.36 21 -3 21 C-3 18.36 -3 15.72 -3 13 C-2.59765625 10.13671875 -2.59765625 10.13671875 -2.0625 7.6875 C-1.88847656 6.86636719 -1.71445313 6.04523438 -1.53515625 5.19921875 C-1 3 -1 3 0 0 Z " fill="#2F0303" transform="translate(166,216)"/>
<path d="M0 0 C8.20467114 9.74994553 13.50115378 21.68360379 18.625 33.25 C19.07504395 34.25015137 19.52508789 35.25030273 19.98876953 36.28076172 C20.39724121 37.2245166 20.80571289 38.16827148 21.2265625 39.140625 C21.59346191 39.98141602 21.96036133 40.82220703 22.33837891 41.68847656 C23.07030412 44.24562341 22.8899158 45.52872303 22 48 C21.34 48 20.68 48 20 48 C19.938125 46.989375 19.87625 45.97875 19.8125 44.9375 C19.27238628 41.04711567 17.64879012 38.80997929 15.26953125 35.765625 C13.30931024 33.03940993 12.25481669 30.10716514 11 27 C10.34 26.01 9.68 25.02 9 24 C8.41162754 22.28616279 7.87280046 20.55480159 7.375 18.8125 C7.11460937 17.91144531 6.85421875 17.01039063 6.5859375 16.08203125 C6.39257812 15.39496094 6.19921875 14.70789063 6 14 C5.01 14 4.02 14 3 14 C3 11.69 3 9.38 3 7 C2.360625 6.87625 1.72125 6.7525 1.0625 6.625 C0.381875 6.41875 -0.29875 6.2125 -1 6 C-1.33 5.34 -1.66 4.68 -2 4 C-1.0625 1.875 -1.0625 1.875 0 0 Z " fill="#984E50" transform="translate(462,117)"/>
<path d="M0 0 C7.52563235 -0.02480684 15.05124064 -0.04291058 22.5769043 -0.05493164 C25.13452571 -0.05994563 27.69214427 -0.06675848 30.24975586 -0.07543945 C33.93604232 -0.08763382 37.62229072 -0.09325779 41.30859375 -0.09765625 C42.44332626 -0.10281754 43.57805878 -0.10797882 44.74717712 -0.11329651 C50.9191002 -0.11372797 56.88077806 0.18466799 63 1 C63 1.33 63 1.66 63 2 C61.04707031 1.98259766 61.04707031 1.98259766 59.0546875 1.96484375 C57.32812644 1.95546027 55.60156382 1.94636066 53.875 1.9375 C53.0190625 1.92912109 52.163125 1.92074219 51.28125 1.91210938 C47.64754331 1.89813358 44.27905697 1.95261297 40.6875 2.5625 C37.8114869 3.03068818 35.92788605 2.7844555 33.125 2.0625 C31.95324219 1.77052734 31.95324219 1.77052734 30.7578125 1.47265625 C30.17773438 1.31667969 29.59765625 1.16070312 29 1 C28.67 1.66 28.34 2.32 28 3 C25.45450104 3.07272854 23.18318306 3.03960715 20.6875 2.5 C17.05182838 1.82359598 13.69875266 1.87670824 10 2 C9.67 2.33 9.34 2.66 9 3 C7 3 5 3 3 3 C0.94077598 5.05922402 1.58572421 9.21708124 1.4375 12.0625 C1.39431641 12.82111328 1.35113281 13.57972656 1.30664062 14.36132812 C1.20026367 16.24065438 1.09960066 18.12030244 1 20 C0.67 20 0.34 20 0 20 C0 13.4 0 6.8 0 0 Z " fill="#2B1C1C" transform="translate(5,237)"/>
<path d="M0 0 C0.95261719 0.23332031 1.90523438 0.46664062 2.88671875 0.70703125 C12.68905909 3.34751407 21.20055585 8.06809597 30 13 C28.68 13.33 27.36 13.66 26 14 C26 13.34 26 12.68 26 12 C25.05125 11.87625 24.1025 11.7525 23.125 11.625 C20 11 20 11 18 9 C15.93125966 8.3574765 15.93125966 8.3574765 14 8 C14 7.34 14 6.68 14 6 C12.82630859 5.80083984 12.82630859 5.80083984 11.62890625 5.59765625 C10.61699219 5.42105469 9.60507812 5.24445313 8.5625 5.0625 C7.55316406 4.88847656 6.54382813 4.71445313 5.50390625 4.53515625 C3 4 3 4 2 3 C-5.74460315 0.87372619 -13.59145089 0.81314895 -21.5625 0.8125 C-23.02659302 0.81141235 -23.02659302 0.81141235 -24.52026367 0.81030273 C-29.8457573 0.81714172 -29.8457573 0.81714172 -35 2 C-36.39439664 2.06665376 -37.79169875 2.08538199 -39.1875 2.0625 C-41.0746875 2.0315625 -41.0746875 2.0315625 -43 2 C-32.26052024 -5.15965318 -11.96404781 -3.43247143 0 0 Z " fill="#3D0404" transform="translate(269,157)"/>
<path d="M0 0 C0.66 0 1.32 0 2 0 C1.41746114 4.22340672 -1.05734784 7.27135127 -3.5 10.625 C-3.9434375 11.24093018 -4.386875 11.85686035 -4.84375 12.49145508 C-8.33986728 17.27068217 -12.127402 21.69786462 -16.1875 26.01171875 C-18.15610321 28.07099988 -18.15610321 28.07099988 -20 31 C-20.99 30.67 -21.98 30.34 -23 30 C-21.66666667 26.66666667 -20.33333333 23.33333333 -19 20 C-17.35 20 -15.7 20 -14 20 C-14 18.68 -14 17.36 -14 16 C-13.67 15.01 -13.34 14.02 -13 13 C-12.030625 12.71125 -11.06125 12.4225 -10.0625 12.125 C-6.80031398 11.33211309 -6.80031398 11.33211309 -5.8125 8.5 C-5.544375 7.675 -5.27625 6.85 -5 6 C-4.01 5.34 -3.02 4.68 -2 4 C-0.80767387 1.94996045 -0.80767387 1.94996045 0 0 Z " fill="#ABA4A5" transform="translate(455,389)"/>
<path d="M0 0 C0.66 0 1.32 0 2 0 C2.30292969 0.78503906 2.60585937 1.57007813 2.91796875 2.37890625 C5.39450552 8.58929845 7.98358849 13.68096854 12 19 C12.350625 19.9075 12.70125 20.815 13.0625 21.75 C14.1970181 24.47284343 15.62553196 25.33787237 18 27 C18 27.66 18 28.32 18 29 C18.66 29 19.32 29 20 29 C21.66666667 30.66666667 23.33333333 32.33333333 25 34 C26.6502694 35.0268343 28.31243867 36.03567924 30 37 C30 37.33 30 37.66 30 38 C25.90069256 38.51774314 24.39046376 38.29477699 21.03515625 35.76171875 C20.02519673 34.75577298 19.03498964 33.72971352 18.0625 32.6875 C17.54034912 32.14279053 17.01819824 31.59808105 16.48022461 31.03686523 C9.20521608 23.24729119 0 11.14889148 0 0 Z " fill="#848180" transform="translate(184,259)"/>
<path d="M0 0 C3.30211722 2.67314251 4.49104296 6.16293782 6 10 C6.33257812 10.79148438 6.66515625 11.58296875 7.0078125 12.3984375 C10.63434035 21.12896751 12.03901575 28.3901575 13 38 C23.23 38.33 33.46 38.66 44 39 C44 39.33 44 39.66 44 40 C33.44 40 22.88 40 12 40 C8.68085106 31.14893617 8.68085106 31.14893617 8.5625 27.125 C8.21990908 22.39432965 6.87390736 18.6313013 4.9375 14.32421875 C3.95730363 11.89414859 3.43806601 9.57820102 3 7 C2.34 7 1.68 7 1 7 C0.67 4.69 0.34 2.38 0 0 Z " fill="#270000" transform="translate(324,198)"/>
<path d="M0 0 C-0.99 0.33 -1.98 0.66 -3 1 C-3.33 1.66 -3.66 2.32 -4 3 C-4.33 3.66 -4.66 4.32 -5 5 C-5.33 5.99 -5.66 6.98 -6 8 C-6.60972656 8.14953125 -7.21945313 8.2990625 -7.84765625 8.453125 C-10.7085147 9.18002188 -11.59156343 10.48201327 -13.4375 12.75 C-16.15155738 16.00570402 -19.00164699 19.00164699 -22 22 C-23.93798263 24.77260299 -23.93798263 24.77260299 -25 27 C-25.66 27 -26.32 27 -27 27 C-26.68031467 23.48346139 -26.37757864 21.46568032 -24.125 18.6875 C-22 17 -22 17 -19 16 C-18.72027344 15.27296875 -18.44054687 14.5459375 -18.15234375 13.796875 C-16.67080111 10.20099523 -14.30759236 7.90561738 -11.5625 5.25 C-11.07201172 4.75628906 -10.58152344 4.26257813 -10.07617188 3.75390625 C-4.68163863 -1.56054621 -4.68163863 -1.56054621 0 0 Z M-29 27 C-28.01 27.495 -28.01 27.495 -27 28 C-27.99 28.495 -27.99 28.495 -29 29 C-29 28.34 -29 27.68 -29 27 Z " fill="#7E080A" transform="translate(84,69)"/>
<path d="M0 0 C0.33 0.66 0.66 1.32 1 2 C1.825 2.28875 2.65 2.5775 3.5 2.875 C6 4 6 4 6.8125 6.125 C6.874375 6.74375 6.93625 7.3625 7 8 C6.01 8.495 6.01 8.495 5 9 C5.66 11.31 6.32 13.62 7 16 C8.32 16.33 9.64 16.66 11 17 C11 17.66 11 18.32 11 19 C11.99 19.33 12.98 19.66 14 20 C13.67 21.32 13.34 22.64 13 24 C13.66 24.33 14.32 24.66 15 25 C14.67 25.66 14.34 26.32 14 27 C12.1875 26.8125 12.1875 26.8125 10 26 C7.22128773 21.94771127 5.29164987 17.47891119 3.3125 13 C2.83200195 11.95199219 2.83200195 11.95199219 2.34179688 10.8828125 C0.67536361 7.11646013 -0.43571217 4.20914394 0 0 Z M6 1 C6.33 1.66 6.66 2.32 7 3 C6.34 2.67 5.68 2.34 5 2 C5.33 1.67 5.66 1.34 6 1 Z " fill="#A0999A" transform="translate(16,336)"/>
<path d="M0 0 C2.97 0.495 2.97 0.495 6 1 C6 1.66 6 2.32 6 3 C8.8653397 4.46598776 11.66877617 5.87675393 14.6875 7 C17 8 17 8 18.4375 9.5 C20.6533037 11.62717155 23.09081407 12.15956851 26 13 C26 13.66 26 14.32 26 15 C27.0725 15.144375 28.145 15.28875 29.25 15.4375 C31.10625 15.7159375 31.10625 15.7159375 33 16 C33.721875 16.103125 34.44375 16.20625 35.1875 16.3125 C37.76705796 17.29095302 39.16355396 18.97990936 41 21 C41.66 21.66 42.32 22.32 43 23 C36.76174564 22.52271074 32.08652289 20.41333243 26.5625 17.5625 C25.69592773 17.12164062 24.82935547 16.68078125 23.93652344 16.2265625 C18.07620658 13.19662204 12.36212892 9.96757868 6.75 6.5 C6.06494385 6.07920166 5.3798877 5.65840332 4.67407227 5.22485352 C3.07675398 4.2092092 1.53157242 3.11231516 0 2 C0 1.34 0 0.68 0 0 Z " fill="#ABA5A5" transform="translate(111,457)"/>
<path d="M0 0 C1.32 0 2.64 0 4 0 C4 8.91 4 17.82 4 27 C7.63 27 11.26 27 15 27 C15 27.33 15 27.66 15 28 C14.31292969 28.04898437 13.62585937 28.09796875 12.91796875 28.1484375 C12.01691406 28.22320312 11.11585937 28.29796875 10.1875 28.375 C9.29417969 28.44460938 8.40085937 28.51421875 7.48046875 28.5859375 C4.75601501 28.86645036 4.75601501 28.86645036 2 31 C1.74339906 34.07921132 1.60568496 36.21136993 3 39 C3.07092842 41.2072923 3.08415025 43.41667452 3.0625 45.625 C3.05347656 46.81351562 3.04445313 48.00203125 3.03515625 49.2265625 C3.01775391 50.59941406 3.01775391 50.59941406 3 52 C-1.94953972 44.57569041 -1.27045976 34.6096356 -1 26 C0.32 25.67 1.64 25.34 3 25 C3 17.08 3 9.16 3 1 C2.01 0.67 1.02 0.34 0 0 Z " fill="#B3AFAF" transform="translate(1,237)"/>
<path d="M0 0 C0.66 0 1.32 0 2 0 C2.31471861 6.28563009 1.13700018 11.94736362 -0.25 18.0625 C-0.47671387 19.07658936 -0.70342773 20.09067871 -0.93701172 21.13549805 C-5.96693697 43.31129132 -5.96693697 43.31129132 -10 46 C-10 43.36 -10 40.72 -10 38 C-9.34 38 -8.68 38 -8 38 C-7.505 36.1128125 -7.505 36.1128125 -7 34.1875 C-6.814375 33.47980469 -6.62875 32.77210938 -6.4375 32.04296875 C-5.8952993 29.85929991 -5.8952993 29.85929991 -6 27 C-5.55342298 25.46928001 -5.06964644 23.94923318 -4.5625 22.4375 C-2.96148419 17.30971824 -2.32991843 12.34695386 -2 7 C-1.34 7 -0.68 7 0 7 C0 4.69 0 2.38 0 0 Z " fill="#A8A1A1" transform="translate(496,283)"/>
<path d="M0 0 C7.23936231 6.41200662 11.3649452 14.67903974 12.2043457 24.35571289 C12.30319868 26.86607806 12.32898223 29.36277308 12.3125 31.875 C12.30758545 32.75905518 12.3026709 33.64311035 12.29760742 34.55395508 C12.11847478 44.50729941 9.70654688 52.73209874 4 61 C3.01 61.495 3.01 61.495 2 62 C2 61.01 2 60.02 2 59 C2.66 59 3.32 59 4 59 C4.12375 57.700625 4.2475 56.40125 4.375 55.0625 C4.5859375 52.84765625 4.5859375 52.84765625 5 51 C5.99 50.505 5.99 50.505 7 50 C11.88618666 37.20177716 11.38600769 23.50206634 6 11 C4.50938675 8.44777926 2.94368619 6.07090805 1.171875 3.70703125 C0 2 0 2 0 0 Z " fill="#878382" transform="translate(288,210)"/>
<path d="M0 0 C0 0.66 0 1.32 0 2 C0.66 2.33 1.32 2.66 2 3 C1.67 3.66 1.34 4.32 1 5 C2.32 5.66 3.64 6.32 5 7 C5 7.66 5 8.32 5 9 C6.32 9 7.64 9 9 9 C9.66 8.34 10.32 7.68 11 7 C11.99 7.33 12.98 7.66 14 8 C13.34 8.66 12.68 9.32 12 10 C12.01382865 12.05714832 12.01382865 12.05714832 13 14 C14.9837767 15.28436734 14.9837767 15.28436734 17 16 C17 16.66 17 17.32 17 18 C17.66 18 18.32 18 19 18 C19 18.66 19 19.32 19 20 C20.65 20 22.3 20 24 20 C24 20.99 24 21.98 24 23 C19.31122855 22.51465582 16.38163806 20.37111869 12.8125 17.5 C12.25022705 17.0565625 11.6879541 16.613125 11.10864258 16.15625 C0.46343845 7.67502357 0.46343845 7.67502357 -4 3 C-4 2.34 -4 1.68 -4 1 C-2 0 -2 0 0 0 Z " fill="#A7A1A1" transform="translate(86,433)"/>
<path d="M0 0 C0.66 0.33 1.32 0.66 2 1 C1.67 1.99 1.34 2.98 1 4 C1.66 4.33 2.32 4.66 3 5 C2.34 5.66 1.68 6.32 1 7 C0.60235737 8.98821313 0.26224651 10.98944339 0 13 C-0.99 13.33 -1.98 13.66 -3 14 C-5.38311806 19.31618644 -6.37372476 25.23826782 -7 31 C-7.66 31 -8.32 31 -9 31 C-9.58179863 23.40429561 -8.26889853 17.85884959 -5 11 C-4.34 11 -3.68 11 -3 11 C-3 8.36 -3 5.72 -3 3 C-2.01 2.67 -1.02 2.34 0 2 C0 1.34 0 0.68 0 0 Z M-10 31 C-9.67 31.66 -9.34 32.32 -9 33 C-9.9375 35.125 -9.9375 35.125 -11 37 C-11.625 35.125 -11.625 35.125 -12 33 C-11.34 32.34 -10.68 31.68 -10 31 Z " fill="#720D0D" transform="translate(21,153)"/>
<path d="M0 0 C1.11503906 0.01289063 2.23007813 0.02578125 3.37890625 0.0390625 C5.11720703 0.08933594 5.11720703 0.08933594 6.890625 0.140625 C8.65212891 0.16769531 8.65212891 0.16769531 10.44921875 0.1953125 C13.3471784 0.2424338 16.24348918 0.30821195 19.140625 0.390625 C19.140625 1.050625 19.140625 1.710625 19.140625 2.390625 C19.71296875 2.20628906 20.2853125 2.02195313 20.875 1.83203125 C24.58619679 1.10898774 27.53823605 2.36994813 31.140625 3.390625 C31.140625 4.050625 31.140625 4.710625 31.140625 5.390625 C30.45129883 5.3191626 29.76197266 5.2477002 29.05175781 5.17407227 C20.64851304 4.37993928 12.32665593 4.27301525 3.890625 4.328125 C2.54817878 4.33315714 1.2057307 4.33771698 -0.13671875 4.34179688 C-3.3776531 4.35345491 -6.61848869 4.36981726 -9.859375 4.390625 C-6.71722309 0.59111914 -4.89172445 -0.09983111 0 0 Z " fill="#D72321" transform="translate(239.859375,151.609375)"/>
<path d="M0 0 C-4.04300712 3.56735922 -7.65760978 5.30847099 -12.92578125 6.3984375 C-15.29680767 7.08607981 -17.04904651 8.10746896 -19.125 9.4375 C-19.80820313 9.86933594 -20.49140625 10.30117187 -21.1953125 10.74609375 C-23.12814961 12.00999892 -23.12814961 12.00999892 -25 14 C-28 16 -28 16 -30.1875 15.625 C-31.0846875 15.315625 -31.0846875 15.315625 -32 15 C-25.07129156 8.84114806 -9.66106913 -2.99826283 0 0 Z " fill="#2E0101" transform="translate(226,160)"/>
<path d="M0 0 C2.31 0 4.62 0 7 0 C5.05128766 6.40291196 2.33609465 9.07428683 -3.40234375 12.38671875 C-4.23894531 12.81597656 -5.07554687 13.24523437 -5.9375 13.6875 C-6.77152344 14.12449219 -7.60554688 14.56148438 -8.46484375 15.01171875 C-11.17148771 16.06685114 -13.12268373 16.19044848 -16 16 C-15.01 14.02 -14.02 12.04 -13 10 C-12.01 10.33 -11.02 10.66 -10 11 C-9.01 10.34 -8.02 9.68 -7 9 C-4.95703125 8.5859375 -4.95703125 8.5859375 -2.8125 8.375 C-1.554375 8.25125 -0.29625 8.1275 1 8 C1.08226668 4.95613276 0.97608217 2.92824652 0 0 Z " fill="#BBB4B5" transform="translate(360,465)"/>
<path d="M0 0 C0.33 0.66 0.66 1.32 1 2 C2.72349255 2.6422386 2.72349255 2.6422386 5 3 C6.40572266 3.25910156 6.40572266 3.25910156 7.83984375 3.5234375 C13.50487104 4.32460468 19.22995907 4.10468194 24.9375 4.0625 C26.09830078 4.05798828 27.25910156 4.05347656 28.45507812 4.04882812 C31.30343934 4.03710647 34.15169222 4.0206976 37 4 C37 4.66 37 5.32 37 6 C32.57088594 6.02486762 28.14180975 6.04293889 23.71264648 6.05493164 C22.2084075 6.05993555 20.70417332 6.06674073 19.19995117 6.07543945 C17.02781991 6.08767884 14.85575341 6.09326786 12.68359375 6.09765625 C11.37962646 6.10289307 10.07565918 6.10812988 8.73217773 6.11352539 C5.04798967 6.00145975 1.63028534 5.59374786 -2 5 C-1.125 1.125 -1.125 1.125 0 0 Z " fill="#D40F0C" transform="translate(339,230)"/>
<path d="M0 0 C0 0.66 0 1.32 0 2 C-3.34454683 3.11484894 -5.55731083 2.69816348 -8.9921875 2.26171875 C-12.91615363 1.92028274 -16.81292285 1.88130268 -20.75 1.875 C-21.48299316 1.87056885 -22.21598633 1.8661377 -22.97119141 1.86157227 C-25.84796588 1.86912717 -28.57885755 1.90940914 -31.39819336 2.51586914 C-34.21180007 3.03941067 -36.66389042 3.02248596 -39.51953125 2.87890625 C-40.54111328 2.83056641 -41.56269531 2.78222656 -42.61523438 2.73242188 C-44.19788086 2.64831055 -44.19788086 2.64831055 -45.8125 2.5625 C-46.88693359 2.51029297 -47.96136719 2.45808594 -49.06835938 2.40429688 C-51.71256304 2.2750247 -54.35635027 2.14007564 -57 2 C-57 1.67 -57 1.34 -57 1 C-38.00735727 -0.24834271 -19.0225153 -0.10159095 0 0 Z " fill="#2B1B1B" transform="translate(494,237)"/>
<path d="M0 0 C0 0.66 0 1.32 0 2 C-0.78503906 2.18175781 -1.57007813 2.36351562 -2.37890625 2.55078125 C-8.2062212 3.94504679 -13.57523528 5.46074843 -19 8 C-19.99 8.33 -20.98 8.66 -22 9 C-22 9.66 -22 10.32 -22 11 C-23.423125 11.12375 -23.423125 11.12375 -24.875 11.25 C-29.13653745 11.82283395 -32.77904981 13.48177078 -36.66796875 15.2578125 C-39.30921416 16.09840987 -40.40485516 15.76470496 -43 15 C-33.20959789 10.34653727 -23.40561122 6.27449101 -13.0625 3 C-12.10972168 2.69763428 -11.15694336 2.39526855 -10.17529297 2.08374023 C-3.42067968 0 -3.42067968 0 0 0 Z " fill="#BD8382" transform="translate(186,8)"/>
<path d="M0 0 C0.66 0 1.32 0 2 0 C1.13343781 5.20290149 -2.40023863 7.41411533 -6.25 10.6875 C-6.91902344 11.28111328 -7.58804687 11.87472656 -8.27734375 12.48632812 C-14.39795832 17.75919549 -14.39795832 17.75919549 -19 18 C-19.33 16.35 -19.66 14.7 -20 13 C-19.01 12.34 -18.02 11.68 -17 11 C-16.01 11.33 -15.02 11.66 -14 12 C-11.61438008 10.52652887 -10.26132231 9.52264461 -9 7 C-7.24312198 6.00975966 -5.48385766 5.02194748 -3.69140625 4.09765625 C-1.68233132 2.95248983 -1.68233132 2.95248983 0 0 Z " fill="#B2ACAB" transform="translate(420,430)"/>
<path d="M0 0 C6.99902558 1.38829593 13.50328517 3.45765175 20.1875 5.9375 C21.14591797 6.28490234 22.10433594 6.63230469 23.09179688 6.99023438 C27.88568674 8.74942962 32.49797007 10.58630665 37 13 C34 14 34 14 32.30859375 13.1875 C31.54675781 12.795625 30.78492188 12.40375 30 12 C27.35687129 11.28849532 24.72623364 10.62161879 22.0625 10 C12.7229887 7.80851064 12.7229887 7.80851064 9 6 C8.67 5.34 8.34 4.68 8 4 C6.11736119 3.09656316 6.11736119 3.09656316 3.9375 2.375 C3.20402344 2.11460938 2.47054688 1.85421875 1.71484375 1.5859375 C1.14894531 1.39257812 0.58304687 1.19921875 0 1 C0 0.67 0 0.34 0 0 Z " fill="#B87A7A" transform="translate(318,9)"/>
<path d="M0 0 C0.33 0 0.66 0 1 0 C1.17017309 13.29240935 0.8307605 23.79354812 -5 36 C-5.99 36.495 -5.99 36.495 -7 37 C-5.66666667 29 -4.33333333 21 -3 13 C-2.34 13 -1.68 13 -1 13 C-0.67 8.71 -0.34 4.42 0 0 Z " fill="#A3A09F" transform="translate(317,234)"/>
<path d="M0 0 C0.68359375 1.734375 0.68359375 1.734375 1 4 C-0.21484375 6.140625 -0.21484375 6.140625 -1.9375 8.25 C-2.50339844 8.95640625 -3.06929687 9.6628125 -3.65234375 10.390625 C-4.09707031 10.92171875 -4.54179687 11.4528125 -5 12 C-4.34 12.33 -3.68 12.66 -3 13 C-3.99 13 -4.98 13 -6 13 C-6.12375 13.763125 -6.2475 14.52625 -6.375 15.3125 C-7 18 -7 18 -9 21 C-9.66 21 -10.32 21 -11 21 C-11.28875 21.969375 -11.5775 22.93875 -11.875 23.9375 C-13 27 -13 27 -15 28 C-13.38180568 22.13404558 -11.08080474 17.02647472 -8.0625 11.75 C-7.72669922 11.16009277 -7.39089844 10.57018555 -7.04492188 9.96240234 C-4.95852188 6.39191414 -2.65887488 3.16447748 0 0 Z " fill="#280302" transform="translate(182,187)"/>
<path d="M0 0 C5.02661209 2.22273228 8.35883819 6.02932191 12.1875 9.875 C12.92419922 10.59558594 13.66089844 11.31617187 14.41992188 12.05859375 C15.47083008 13.10853516 15.47083008 13.10853516 16.54296875 14.1796875 C17.18258545 14.81632324 17.82220215 15.45295898 18.48120117 16.10888672 C20.08584864 18.10689336 20.59616197 19.49502363 21 22 C19.68 22.33 18.36 22.66 17 23 C16.9175 22.236875 16.835 21.47375 16.75 20.6875 C15.84504809 17.44475565 14.71226652 16.83734184 12 15 C12 14.34 12 13.68 12 13 C11.01 12.67 10.02 12.34 9 12 C9.33 11.34 9.66 10.68 10 10 C9.1028125 9.566875 9.1028125 9.566875 8.1875 9.125 C6 8 6 8 3 6 C2.01 6.495 2.01 6.495 1 7 C0.67 4.69 0.34 2.38 0 0 Z " fill="#7B0C0E" transform="translate(416,65)"/>
<path d="M0 0 C-2.50053896 2.60472808 -5.12789759 4.97588415 -7.875 7.3125 C-11.66915598 10.59508439 -14.82971568 14.11640171 -18 18 C-18.33 17.34 -18.66 16.68 -19 16 C-15.46102487 8.06584607 -9.76862241 -1.4295545 0 0 Z " fill="#CAC6C5" transform="translate(239,215)"/>
<path d="M0 0 C0.33 0 0.66 0 1 0 C1 2.64 1 5.28 1 8 C0.01 8.495 0.01 8.495 -1 9 C-3.57797134 14.4149733 -4.38498744 20.00021133 -4.69140625 25.93359375 C-5 28 -5 28 -7 30 C-7.64767793 32.57061311 -7.64767793 32.57061311 -8 35 C-8.66 35 -9.32 35 -10 35 C-9.46689335 27.24572141 -6.95876317 20.31282151 -4.4375 13 C-4.00776298 11.73591503 -3.57872069 10.47159365 -3.15039062 9.20703125 C-2.10705272 6.13563202 -1.0567602 3.06680152 0 0 Z " fill="#9D6666" transform="translate(17,156)"/>
<path d="M0 0 C0.33 0 0.66 0 1 0 C1.35028249 16.0351538 1.35028249 16.0351538 -1 24 C-1.74297695 28.32231859 -2.3779346 32.65877767 -3 37 C-3.33 37 -3.66 37 -4 37 C-4.34148211 28.78782965 -3.28332469 20.97381931 -2 12.875 C-1.71382813 11.01101562 -1.71382813 11.01101562 -1.421875 9.109375 C-0.95455914 6.07182194 -0.48046578 3.03549589 0 0 Z " fill="#AE7D7E" transform="translate(4,200)"/>
<path d="M0 0 C1.24546405 2.49092811 0.7767578 3.41080733 0 6 C-0.66 6 -1.32 6 -2 6 C-2 7.32 -2 8.64 -2 10 C-2.78375 10.20625 -3.5675 10.4125 -4.375 10.625 C-7.31138444 11.78871514 -7.31138444 11.78871514 -8.125 15.0625 C-8.41375 16.031875 -8.7025 17.00125 -9 18 C-9.99 18.33 -10.98 18.66 -12 19 C-12.33 19.99 -12.66 20.98 -13 22 C-13.99 22.33 -14.98 22.66 -16 23 C-14.38566271 17.86438949 -11.23165572 14.02356082 -8 9.8125 C-7.18015625 8.72678711 -7.18015625 8.72678711 -6.34375 7.61914062 C-2.32553089 2.32553089 -2.32553089 2.32553089 0 0 Z " fill="#9D5A5B" transform="translate(57,90)"/>
<path d="M0 0 C0.66 0.33 1.32 0.66 2 1 C-2.28358209 6.87462687 -2.28358209 6.87462687 -5.5 7.4375 C-8 7 -8 7 -10.5 6.3125 C-13.90564813 5.88679398 -15.20217457 7.11146783 -18 9 C-18.886875 9.350625 -19.77375 9.70125 -20.6875 10.0625 C-23.1427942 10.88303421 -23.1427942 10.88303421 -25 13 C-25.33 12.01 -25.66 11.02 -26 10 C-23.3693365 7.3693365 -20.8057726 6.64460598 -17.3125 5.375 C-16.11238281 4.92898437 -14.91226563 4.48296875 -13.67578125 4.0234375 C-9.93434967 2.98172116 -6.86192394 2.81161347 -3 3 C-3 2.34 -3 1.68 -3 1 C-2.01 0.67 -1.02 0.34 0 0 Z " fill="#950405" transform="translate(167,16)"/>
<path d="M0 0 C0 0.33 0 0.66 0 1 C-3.63 1.33 -7.26 1.66 -11 2 C-11 2.99 -11 3.98 -11 5 C-17.96779403 6.32719886 -24.92988911 6.08825381 -32 6 C-27.59387413 3.60928264 -23.1307348 2.83549446 -18.25 1.875 C-16.94675781 1.60236328 -16.94675781 1.60236328 -15.6171875 1.32421875 C-10.30547045 0.26347045 -5.41483341 -0.18888954 0 0 Z " fill="#BC7779" transform="translate(218,2)"/>
<path d="M0 0 C5.17721815 4.69185395 8.96203734 10.33164656 13 16 C13.99535194 17.33680675 14.99351034 18.67155868 16 20 C15.67 20.66 15.34 21.32 15 22 C11.17475764 20.549046 9.80909034 18.61818068 8 15 C8 14.34 8 13.68 8 13 C7.34 13 6.68 13 6 13 C5.67 11.35 5.34 9.7 5 8 C4.01 7.67 3.02 7.34 2 7 C0.8125 3.4375 0.8125 3.4375 0 0 Z " fill="#A76B69" transform="translate(446,95)"/>
<path d="M0 0 C0.99 0.99 1.98 1.98 3 3 C4.32 2.34 5.64 1.68 7 1 C6.484897 6.31455478 4.63835295 9.90623121 1.9375 14.375 C1.56044922 15.01566406 1.18339844 15.65632813 0.79492188 16.31640625 C-0.12839617 17.88254066 -1.06305393 19.44198034 -2 21 C-2.66 21 -3.32 21 -4 21 C-4 17 -4 17 -2.5625 15.4375 C-2.046875 14.963125 -1.53125 14.48875 -1 14 C-0.67 13.01 -0.34 12.02 0 11 C0.66 11 1.32 11 2 11 C2.66 9.02 3.32 7.04 4 5 C3.34 5 2.68 5 2 5 C1.67 5.66 1.34 6.32 1 7 C0.34 5.02 -0.32 3.04 -1 1 C-0.67 0.67 -0.34 0.34 0 0 Z " fill="#A49E9E" transform="translate(466,360)"/>
<path d="M0 0 C1.65 0 3.3 0 5 0 C4.49890042 4.38462134 3.01704885 6.8000997 0 10 C-0.66 10 -1.32 10 -2 10 C-2.66 11.65 -3.32 13.3 -4 15 C-5.5 13.75 -5.5 13.75 -7 12 C-7 10.68 -7 9.36 -7 8 C-5.35 8 -3.7 8 -2 8 C-0.74335022 5.09399739 0 3.20395416 0 0 Z " fill="#D60D0D" transform="translate(177,184)"/>
<path d="M0 0 C0.66 0 1.32 0 2 0 C2.33 0.99 2.66 1.98 3 3 C2.34 3 1.68 3 1 3 C1.33 4.65 1.66 6.3 2 8 C1.01 8 0.02 8 -1 8 C-0.67 8.99 -0.34 9.98 0 11 C-2.35953094 13.35953094 -3.77895617 13.49141413 -7 14 C-6.52651586 9.8333396 -5.95303159 7.07115285 -3 4 C-2.34 4 -1.68 4 -1 4 C-0.67 2.68 -0.34 1.36 0 0 Z " fill="#7D0709" transform="translate(45,108)"/>
<path d="M0 0 C3.97975621 2.65317081 4.11821111 5.51916062 5.0625 9.9375 C6.30077887 15.74033991 6.30077887 15.74033991 9 21 C8.625 23.1875 8.625 23.1875 8 25 C7.32645501 23.56570999 6.66140299 22.12742943 6 20.6875 C5.62875 19.88699219 5.2575 19.08648437 4.875 18.26171875 C4 16 4 16 4 13 C3.34 13 2.68 13 2 13 C0.24252386 8.49646738 -0.19294408 4.82360189 0 0 Z " fill="#B7B3B2" transform="translate(182,246)"/>
<path d="M0 0 C0.33 0 0.66 0 1 0 C0.6083965 5.95507399 -0.37124595 10.62819824 -3 16 C-3.66 16 -4.32 16 -5 16 C-5 16.66 -5 17.32 -5 18 C-5.99 18.33 -6.98 18.66 -8 19 C-6.00386732 12.2813095 -3.2708579 6.19265192 0 0 Z " fill="#9F6161" transform="translate(26,137)"/>
<path d="M0 0 C0.66 0.33 1.32 0.66 2 1 C1.52578613 1.45850342 1.05157227 1.91700684 0.56298828 2.3894043 C-1.59093299 4.48078215 -3.73298534 6.58393175 -5.875 8.6875 C-6.62136719 9.40873047 -7.36773437 10.12996094 -8.13671875 10.87304688 C-8.85214844 11.57880859 -9.56757812 12.28457031 -10.3046875 13.01171875 C-10.96452637 13.65584717 -11.62436523 14.29997559 -12.30419922 14.96362305 C-14.16762421 17.20128903 -14.94450897 19.30780163 -16 22 C-18.27158744 23.59011121 -20.52870728 24.76435364 -23 26 C-21.34287565 21.90184217 -18.42469944 18.9770239 -15.4375 15.8125 C-14.90608398 15.24313721 -14.37466797 14.67377441 -13.82714844 14.0871582 C-9.32361044 9.28577073 -4.70809493 4.60109277 0 0 Z " fill="#D9BBB7" transform="translate(81,64)"/>
<path d="M0 0 C6.71828758 -0.38555452 12.89822428 1.06407595 19.4375 2.5 C21.1071582 2.85771484 21.1071582 2.85771484 22.81054688 3.22265625 C25.54180031 3.80876214 28.27146868 4.40137252 31 5 C31 5.33 31 5.66 31 6 C29.52093108 6.02689216 28.04172517 6.04634621 26.5625 6.0625 C25.32693359 6.07990234 25.32693359 6.07990234 24.06640625 6.09765625 C22 6 22 6 21 5 C17.4099482 4.71406667 13.81985155 4.55089829 10.22265625 4.37890625 C7 4 7 4 5 2 C2.42938689 1.35232207 2.42938689 1.35232207 0 1 C0 0.67 0 0.34 0 0 Z " fill="#BF8684" transform="translate(283,2)"/>
<path d="M0 0 C2.0592341 3.80780787 3.09769878 7.69417535 4.21875 11.85546875 C4.78732432 14.18004547 4.78732432 14.18004547 7 15 C7.33333333 16.33333333 7.66666667 17.66666667 8 19 C8.66 19.33 9.32 19.66 10 20 C12.0095568 22.93704456 13 24.39222485 13 28 C5.60140263 21.23556812 0.34892046 12.62948883 -0.1875 2.4375 C-0.125625 1.633125 -0.06375 0.82875 0 0 Z " fill="#858180" transform="translate(200,249)"/>
<path d="M0 0 C5.03382098 1.6481544 9.0260491 4.60648051 13.3125 7.625 C14.05306641 8.140625 14.79363281 8.65625 15.55664062 9.1875 C17.37422697 10.45394726 19.18850838 11.72485759 21 13 C17.90279155 13.87840996 16.09354597 13.99435406 13 13 C12.67 11.35 12.34 9.7 12 8 C9.03 7.01 6.06 6.02 3 5 C3 4.34 3 3.68 3 3 C2.01 3 1.02 3 0 3 C0 2.01 0 1.02 0 0 Z " fill="#B27975" transform="translate(378,35)"/>
<path d="M0 0 C3.30347979 2.67424554 4.4869859 6.16368464 6 10 C6.34417969 10.80308594 6.68835938 11.60617188 7.04296875 12.43359375 C9.11213198 17.34132025 10.53808885 21.68802177 11 27 C6.7467386 20.6201079 4.32944055 14.55681999 3 7 C2.34 7 1.68 7 1 7 C0.67 4.69 0.34 2.38 0 0 Z " fill="#2A0000" transform="translate(324,198)"/>
<path d="M0 0 C0.99 0.33 1.98 0.66 3 1 C1.39612733 2.1254191 -0.20810916 3.25031972 -1.8125 4.375 C-2.70582031 5.00148438 -3.59914063 5.62796875 -4.51953125 6.2734375 C-8.33081612 8.92633185 -10.55956077 10.26438136 -15.1875 10.625 C-16.08855469 10.69976562 -16.98960937 10.77453125 -17.91796875 10.8515625 C-18.60503906 10.90054687 -19.29210937 10.94953125 -20 11 C-17.44240388 9.29493592 -15.00256 7.96708671 -12.25 6.625 C-9.09438635 5.07713695 -6.05689176 3.46377362 -3.0625 1.625 C-2.051875 1.08875 -1.04125 0.5525 0 0 Z " fill="#7F7D7B" transform="translate(290,294)"/>
<path d="M0 0 C-4.4281689 1.70314189 -8.45386205 2.34196731 -13.14453125 2.65625 C-13.75683594 2.7696875 -14.36914062 2.883125 -15 3 C-15.33 3.66 -15.66 4.32 -16 5 C-16.66 5 -17.32 5 -18 5 C-18 4.34 -18 3.68 -18 3 C-20.64 2.34 -23.28 1.68 -26 1 C-26 0.67 -26 0.34 -26 0 C-22.22958744 -0.19670554 -18.45866237 -0.38078426 -14.6875 -0.5625 C-13.61564453 -0.61857422 -12.54378906 -0.67464844 -11.43945312 -0.73242188 C-9.89741211 -0.80493164 -9.89741211 -0.80493164 -8.32421875 -0.87890625 C-7.37635498 -0.9260376 -6.42849121 -0.97316895 -5.4519043 -1.02172852 C-3 -1 -3 -1 0 0 Z " fill="#767475" transform="translate(264,273)"/>
<path d="M0 0 C0.66 0.66 1.32 1.32 2 2 C-5.40384615 9.82692308 -5.40384615 9.82692308 -10.8125 10.1875 C-11.8953125 10.0946875 -11.8953125 10.0946875 -13 10 C-9.1638618 4.87109727 -6.09796608 2.07330847 0 0 Z " fill="#9E9A99" transform="translate(277,259)"/>
<path d="M0 0 C0.33 0 0.66 0 1 0 C1.33931227 2.66602496 1.67157176 5.33263014 2 8 C2.09539062 8.74378906 2.19078125 9.48757812 2.2890625 10.25390625 C2.89227676 15.20888051 3.09075591 20.00842496 3 25 C1.35 25.33 -0.3 25.66 -2 26 C-2.33 27.32 -2.66 28.64 -3 30 C-3.20086443 26.28400809 -3.1519437 25.22791555 -1 22 C-0.34 22 0.32 22 1 22 C0.67 14.74 0.34 7.48 0 0 Z " fill="#A7817D" transform="translate(497,212)"/>
<path d="M0 0 C0 0.66 0 1.32 0 2 C-2.49723452 2.67885987 -4.99696141 3.34317427 -7.5 4 C-8.19609375 4.19078125 -8.8921875 4.3815625 -9.609375 4.578125 C-14.5412919 5.85677012 -18.90580091 6.18357474 -24 6 C-20.51812247 3.67874831 -17.12828961 2.84877315 -13.125 1.875 C-12.41730469 1.69324219 -11.70960938 1.51148438 -10.98046875 1.32421875 C-7.25197827 0.40077511 -3.8442625 -0.22613309 0 0 Z " fill="#BCB4B5" transform="translate(321,489)"/>
<path d="M0 0 C0.66 0 1.32 0 2 0 C2.30292969 0.78503906 2.60585937 1.57007813 2.91796875 2.37890625 C5.37727119 8.54608006 7.86339506 13.79969664 12 19 C11.67 19.66 11.34 20.32 11 21 C8.22933915 19.97426598 7.14603891 19.2396329 5.5859375 16.6796875 C3.20252051 11.15938622 1.22303444 5.8928023 0 0 Z " fill="#999796" transform="translate(184,259)"/>
<path d="M0 0 C1.65 0.33 3.3 0.66 5 1 C5 4.63 5 8.26 5 12 C4.34 12 3.68 12 3 12 C2.34 9.36 1.68 6.72 1 4 C-2.3 3.67 -5.6 3.34 -9 3 C-9 2.67 -9 2.34 -9 2 C-6.03 2 -3.06 2 0 2 C0 1.34 0 0.68 0 0 Z " fill="#AFABAB" transform="translate(495,262)"/>
<path d="M0 0 C5.89895923 -0.22167279 11.21536983 0.05227291 16.94921875 1.48828125 C19.60889848 2.15193467 22.29206739 2.58339498 25 3 C25 3.33 25 3.66 25 4 C16.40400201 4.22588024 8.39817396 3.91958262 0 2 C0 1.34 0 0.68 0 0 Z " fill="#B2ACAB" transform="translate(199,494)"/>
<path d="M0 0 C1.65 0 3.3 0 5 0 C4.61094382 2.72339328 3.93262433 4.08903214 2.25 6.3125 C0 8 0 8 -2.75 7.75 C-3.4925 7.5025 -4.235 7.255 -5 7 C-3.25 3.125 -3.25 3.125 -1 2 C-0.67 1.34 -0.34 0.68 0 0 Z " fill="#B7ADAD" transform="translate(426,421)"/>
<path d="M0 0 C2.1875 0.3125 2.1875 0.3125 4 1 C3.401875 1.556875 2.80375 2.11375 2.1875 2.6875 C-0.10410988 4.89320554 -0.10410988 4.89320554 -1.375 7.6875 C-3 10 -3 10 -6.1875 10.8125 C-7.115625 10.874375 -8.04375 10.93625 -9 11 C-8.06558465 9.72689688 -7.12732889 8.456612 -6.1875 7.1875 C-5.66542969 6.47980469 -5.14335938 5.77210937 -4.60546875 5.04296875 C-3.15436614 3.19643185 -1.79154094 1.51891514 0 0 Z " fill="#8D3738" transform="translate(88,58)"/>
<path d="M0 0 C12.31359124 0.63539884 12.31359124 0.63539884 17 4 C18.375 6.6875 18.375 6.6875 19 9 C18.01 9.99 17.02 10.98 16 12 C15.67 11.01 15.34 10.02 15 9 C15.66 9 16.32 9 17 9 C14.3989614 5.09844209 12.43999119 5.14827358 8 4 C5.8125 3 5.8125 3 4 2 C2.66814704 1.33038077 1.33498758 0.66334786 0 0 Z " fill="#8C0A0A" transform="translate(337,19)"/>
<path d="M0 0 C1.32 0 2.64 0 4 0 C4.66 2.31 5.32 4.62 6 7 C6.66 7 7.32 7 8 7 C8 8.65 8 10.3 8 12 C4.19374018 10.50468364 2.22059499 8.41019944 0 5 C-0.25 2.1875 -0.25 2.1875 0 0 Z " fill="#9E9899" transform="translate(47,393)"/>
<path d="M0 0 C0.99 0 1.98 0 3 0 C4.03789581 1.64333504 5.03567924 3.31243867 6 5 C6.99 5.66 7.98 6.32 9 7 C9.3721042 8.32303717 9.70630173 9.65737935 10 11 C10.66 11.66 11.32 12.32 12 13 C11.625 15.125 11.625 15.125 11 17 C9.53840903 14.91888693 8.08066008 12.83525539 6.625 10.75 C6.2125 10.16347656 5.8 9.57695312 5.375 8.97265625 C3.35295912 6.07004918 1.45533455 3.23052285 0 0 Z " fill="#ABA6A6" transform="translate(35,379)"/>
<path d="M0 0 C0.66 0 1.32 0 2 0 C2.16335585 5.23419357 1.60552037 9.86306192 0.5 14.9375 C0.35691406 15.62134766 0.21382813 16.30519531 0.06640625 17.00976562 C-0.28283771 18.67449514 -0.64052946 20.33744875 -1 22 C-3.14699969 18.55824478 -3.09856795 16.2279708 -2.625 12.25 C-2.51414062 11.26515625 -2.40328125 10.2803125 -2.2890625 9.265625 C-2.19367188 8.51796875 -2.09828125 7.7703125 -2 7 C-1.34 7 -0.68 7 0 7 C0 4.69 0 2.38 0 0 Z " fill="#AEA9A9" transform="translate(496,283)"/>
<path d="M0 0 C2.5843218 2.5843218 3.10401163 4.89375577 4.1875 8.375 C4.55230469 9.51710937 4.91710937 10.65921875 5.29296875 11.8359375 C5.95860385 14.81474653 6.07938697 16.20871903 5 19 C-0.00191477 13.35267688 0.21682385 7.3069639 0 0 Z " fill="#9A5F5D" transform="translate(485,165)"/>
<path d="M0 0 C2.30259931 2.85839915 3.86268345 5.60418038 5.25 9 C5.60578125 9.845625 5.9615625 10.69125 6.328125 11.5625 C7.05204912 14.18882935 6.9128421 15.47212957 6 18 C5.34 18 4.68 18 4 18 C3.8453125 16.39125 3.8453125 16.39125 3.6875 14.75 C3.31491202 11.08465947 3.31491202 11.08465947 1.4375 9 C-0.67318708 6.06339188 -0.20260754 3.51186403 0 0 Z " fill="#AC7675" transform="translate(478,147)"/>
<path d="M0 0 C3.21524305 1.40844718 5.32183868 3.10344786 7.75 5.625 C8.67039063 6.57246094 8.67039063 6.57246094 9.609375 7.5390625 C10.29773438 8.26222656 10.29773438 8.26222656 11 9 C9 10 9 10 6.625 9.3125 C3.73793126 7.86896563 2.00603361 6.52611639 0 4 C0 2.68 0 1.36 0 0 Z " fill="#9F9C9B" transform="translate(221,257)"/>
<path d="M0 0 C0.66 0.33 1.32 0.66 2 1 C-3.02065304 5.63342182 -8.07852282 9.58255173 -14 13 C-12.6351424 8.90542721 -9.78245715 7.28332715 -6.4375 4.8125 C-5.82197266 4.34908203 -5.20644531 3.88566406 -4.57226562 3.40820312 C-3.05294435 2.26576775 -1.52708373 1.13203843 0 0 Z M-16 13 C-15.34 13.33 -14.68 13.66 -14 14 C-15.32 14.99 -16.64 15.98 -18 17 C-17.34 15.68 -16.68 14.36 -16 13 Z " fill="#8A0306" transform="translate(105,48)"/>
<path d="M0 0 C1.32 0.99 2.64 1.98 4 3 C1.69 5.97 -0.62 8.94 -3 12 C-3.33 11.01 -3.66 10.02 -4 9 C-3.505 8.0409375 -3.505 8.0409375 -3 7.0625 C-1.77133649 5.03474079 -1.77133649 5.03474079 -2.375 2.75 C-2.58125 2.1725 -2.7875 1.595 -3 1 C-2.01 0.67 -1.02 0.34 0 0 Z " fill="#B1ABAB" transform="translate(444,401)"/>
<path d="M0 0 C2.31 0.33 4.62 0.66 7 1 C7 1.66 7 2.32 7 3 C10.3 3.99 13.6 4.98 17 6 C17 6.33 17 6.66 17 7 C11.12288378 7.48975968 6.90388227 6.37071448 2 3 C1.34 2.01 0.68 1.02 0 0 Z " fill="#8D8A88" transform="translate(227,266)"/>
<path d="M0 0 C0.66 0 1.32 0 2 0 C0.87828869 3.36513392 -0.19708638 4.37293173 -2.8125 6.6875 C-3.49957031 7.31011719 -4.18664062 7.93273437 -4.89453125 8.57421875 C-7 10 -7 10 -11 10 C-5.9059081 3.29540481 -5.9059081 3.29540481 -2.125 2.0625 C-1.42375 2.041875 -0.7225 2.02125 0 2 C0 1.34 0 0.68 0 0 Z " fill="#DBD7D6" transform="translate(220,198)"/>
<path d="M0 0 C0.8971875 0.309375 0.8971875 0.309375 1.8125 0.625 C-0.1875 2.125 -0.1875 2.125 -2.1875 3.625 C-2.826875 4.181875 -3.46625 4.73875 -4.125 5.3125 C-6.64984715 6.91922092 -8.24988205 6.8698015 -11.1875 6.625 C-10.1975 4.645 -9.2075 2.665 -8.1875 0.625 C-7.1975 0.955 -6.2075 1.285 -5.1875 1.625 C-2.1875 -0.375 -2.1875 -0.375 0 0 Z " fill="#C4BDBF" transform="translate(355.1875,474.375)"/>
<path d="M0 0 C3.82097239 0.53069061 6.06171403 1.49701566 9 4 C8 6 8 6 6 9 C5.01 8.67 4.02 8.34 3 8 C3.33 6.35 3.66 4.7 4 3 C3.01 3 2.02 3 1 3 C0.67 3.66 0.34 4.32 0 5 C0 3.35 0 1.7 0 0 Z " fill="#E3E1E0" transform="translate(193,311)"/>
<path d="M0 0 C2.9386979 3.57721079 3.18911908 5.36658252 3 10 C3.291224 11.67453799 3.61070799 13.34550895 4 15 C3.01 15 2.02 15 1 15 C-0.00109515 11.68929162 -0.10356134 8.69915231 -0.0625 5.25 C-0.05347656 4.26515625 -0.04445312 3.2803125 -0.03515625 2.265625 C-0.02355469 1.51796875 -0.01195312 0.7703125 0 0 Z " fill="#A9A1A2" transform="translate(4,290)"/>
<path d="M0 0 C-0.99 0 -1.98 0 -3 0 C-3 0.66 -3 1.32 -3 2 C-6.66447432 3.64800856 -9.81203466 4.33580973 -13.8125 4.625 C-14.78832031 4.69976563 -15.76414063 4.77453125 -16.76953125 4.8515625 C-17.87361328 4.92503906 -17.87361328 4.92503906 -19 5 C-16.01243632 3.00829088 -13.44575614 1.97092021 -10.0625 0.8125 C-9.02222656 0.44769531 -7.98195312 0.08289063 -6.91015625 -0.29296875 C-4.04543948 -0.98896034 -2.71018643 -1.02529944 0 0 Z " fill="#871415" transform="translate(184,11)"/>
<path d="M0 0 C6.33393082 -0.34548714 11.10261508 0.70657253 17 3 C16.34 3.66 15.68 4.32 15 5 C11.375 4.625 11.375 4.625 8 4 C8 3.34 8 2.68 8 2 C5.36 1.67 2.72 1.34 0 1 C0 0.67 0 0.34 0 0 Z " fill="#8C1012" transform="translate(312,10)"/>
<path d="M0 0 C1.64680455 4.04215662 0.24159458 6.77818603 -1.3125 10.6875 C-1.98732422 12.42580078 -1.98732422 12.42580078 -2.67578125 14.19921875 C-4 17 -4 17 -6 18 C-5.343621 13.51474352 -4.29925791 9.33085971 -3 5 C-2.34 5 -1.68 5 -1 5 C-0.67 3.35 -0.34 1.7 0 0 Z " fill="#999796" transform="translate(316,253)"/>
<path d="M0 0 C1.10652097 3.31956291 0.95237748 3.88796417 -0.25 7 C-0.62898437 8.0209375 -0.62898437 8.0209375 -1.015625 9.0625 C-2.07347158 11.14461073 -3.27220115 12.44692239 -5 14 C-5.125 6.375 -5.125 6.375 -4 3 C-1.9375 1.3125 -1.9375 1.3125 0 0 Z " fill="#C7C2C1" transform="translate(223,231)"/>
<path d="M0 0 C2.97 0.495 2.97 0.495 6 1 C6.33 2.32 6.66 3.64 7 5 C5.35 5.66 3.7 6.32 2 7 C0.4375 4.625 0.4375 4.625 -1 2 C-0.67 1.34 -0.34 0.68 0 0 Z " fill="#890607" transform="translate(404,57)"/>
<path d="M0 0 C0.33 0 0.66 0 1 0 C1.22786458 1.98567708 1.45572917 3.97135417 1.68359375 5.95703125 C1.97170735 8.19396393 1.97170735 8.19396393 3 11 C4.65 11 6.3 11 8 11 C8 11.33 8 11.66 8 12 C3.545 12.495 3.545 12.495 -1 13 C-0.67 8.71 -0.34 4.42 0 0 Z " fill="#6D1215" transform="translate(2,224)"/>
<path d="M0 0 C-0.5590888 3.24271506 -1.4132178 4.93057424 -4 7 C-4.66 7 -5.32 7 -6 7 C-6 7.66 -6 8.32 -6 9 C-7.32 9.33 -8.64 9.66 -10 10 C-4.57142857 0 -4.57142857 0 0 0 Z " fill="#300101" transform="translate(193,177)"/>
<path d="M0 0 C0 3.09875672 -0.58261252 5.24421515 -1.5 8.1875 C-1.7784375 9.08855469 -2.056875 9.98960938 -2.34375 10.91796875 C-2.66859375 11.94857422 -2.66859375 11.94857422 -3 13 C-4.32 13 -5.64 13 -7 13 C-5.58832253 7.73829306 -3.25149768 4.27828642 0 0 Z " fill="#A96E6F" transform="translate(40,113)"/>
<path d="M0 0 C4.08963819 2.28538605 7.46362104 4.95706926 11 8 C7.86650268 9.04449911 7.01031744 8.93423645 4 8 C3.67 6.68 3.34 5.36 3 4 C2.34 4 1.68 4 1 4 C0.67 2.68 0.34 1.36 0 0 Z " fill="#A35F5F" transform="translate(399,49)"/>
<path d="M0 0 C4.31818769 0.49070315 6.64592141 1.29509791 10 4 C11.64797236 4.71162443 13.31165408 5.39031953 15 6 C15 6.33 15 6.66 15 7 C8.94696161 6.6216851 4.81617877 4.70282835 0 1 C0 0.67 0 0.34 0 0 Z " fill="#706E6C" transform="translate(210,297)"/>
<path d="M0 0 C0.33 0 0.66 0 1 0 C1 2.64 1 5.28 1 8 C0.01 8.495 0.01 8.495 -1 9 C-1.78015621 10.82510997 -2.47795406 12.68606676 -3.125 14.5625 C-3.47820313 15.57441406 -3.83140625 16.58632812 -4.1953125 17.62890625 C-4.46085938 18.41136719 -4.72640625 19.19382813 -5 20 C-6.10960573 16.67118282 -5.9412896 16.12635748 -4.78515625 12.98828125 C-4.51123047 12.23095703 -4.23730469 11.47363281 -3.95507812 10.69335938 C-3.66052734 9.90767578 -3.36597656 9.12199219 -3.0625 8.3125 C-2.77181641 7.51521484 -2.48113281 6.71792969 -2.18164062 5.89648438 C-1.46260698 3.92798243 -0.73236297 1.96358188 0 0 Z " fill="#C29894" transform="translate(17,156)"/>
<path d="M0 0 C0.33 0.66 0.66 1.32 1 2 C1.66 2 2.32 2 3 2 C2.25 6.75 2.25 6.75 0 9 C-0.33 9.845625 -0.66 10.69125 -1 11.5625 C-2 14 -2 14 -4 15 C-3.19924675 11.73479256 -2.32533815 8.49253933 -1.4375 5.25 C-1.16808594 4.26515625 -0.89867187 3.2803125 -0.62109375 2.265625 C-0.41613281 1.51796875 -0.21117187 0.7703125 0 0 Z " fill="#7A0404" transform="translate(27,138)"/>
<path d="M0 0 C4.94515667 2.62711448 8.87775489 6.26645294 13 10 C12.01 10.33 11.02 10.66 10 11 C9.01 10.34 8.02 9.68 7 9 C7 8.01 7 7.02 7 6 C6.21625 5.7525 5.4325 5.505 4.625 5.25 C1.67682892 3.84610901 1.0975223 2.99324263 0 0 Z " fill="#300000" transform="translate(299,171)"/>
<path d="M0 0 C-0.99 0.33 -1.98 0.66 -3 1 C-3 1.99 -3 2.98 -3 4 C-6.3 4 -9.6 4 -13 4 C-9.41420832 -0.98892755 -5.61771415 -0.43213186 0 0 Z " fill="#DD1C1B" transform="translate(243,152)"/>
<path d="M0 0 C1 2 1 2 0.25 5.0625 C-0.1625 6.031875 -0.575 7.00125 -1 8 C-1.99 8.33 -2.98 8.66 -4 9 C-4.33 9.99 -4.66 10.98 -5 12 C-5.99 12.33 -6.98 12.66 -8 13 C-6.40956621 7.91061189 -3.2553049 4.12543357 0 0 Z " fill="#AE7674" transform="translate(49,100)"/>
<path d="M0 0 C0.66 0 1.32 0 2 0 C0.43358249 4.30764815 -1.68336156 8.06171464 -4 12 C-4.66 12 -5.32 12 -6 12 C-6 8 -6 8 -4.5625 6.4375 C-4.046875 5.963125 -3.53125 5.48875 -3 5 C-2.67 4.01 -2.34 3.02 -2 2 C-1.34 2 -0.68 2 0 2 C0 1.34 0 0.68 0 0 Z " fill="#AEA9A9" transform="translate(468,369)"/>
<path d="M0 0 C2.97 0.495 2.97 0.495 6 1 C6.625 3.3125 6.625 3.3125 7 6 C6.01 7.485 6.01 7.485 5 9 C5 8.34 5 7.68 5 7 C4.34 7 3.68 7 3 7 C3 6.01 3 5.02 3 4 C2.34 4 1.68 4 1 4 C0.67 2.68 0.34 1.36 0 0 Z " fill="#E50908" transform="translate(328,201)"/>
<path d="M0 0 C3.21764451 4.82646677 4.36261136 10.19821824 4 16 C2 15 2 15 0.875 12.5 C-0.1889199 8.2443204 -0.17434209 4.35855223 0 0 Z " fill="#A97775" transform="translate(491,184)"/>
<path d="M0 0 C1.32 0.33 2.64 0.66 4 1 C4.12375 1.639375 4.2475 2.27875 4.375 2.9375 C4.684375 3.9584375 4.684375 3.9584375 5 5 C5.66 5.33 6.32 5.66 7 6 C5.35 6.66 3.7 7.32 2 8 C0.74335022 5.09399739 0 3.20395416 0 0 Z " fill="#860A0C" transform="translate(395,48)"/>
<path d="M0 0 C0.66 0.99 1.32 1.98 2 3 C1.67 3.99 1.34 4.98 1 6 C1 5.34 1 4.68 1 4 C0.01 4.66 -0.98 5.32 -2 6 C-4.1875 5.625 -4.1875 5.625 -6 5 C-3.74193548 0 -3.74193548 0 0 0 Z " fill="#9A3B3C" transform="translate(113,41)"/>
<path d="M0 0 C-6.52940894 2.95671348 -11.87399867 3.35368021 -19 3 C-19 2.67 -19 2.34 -19 2 C-16.39740876 1.46989799 -13.793443 0.95062205 -11.1875 0.4375 C-10.44951172 0.28603516 -9.71152344 0.13457031 -8.95117188 -0.02148438 C-3.33984375 -1.11328125 -3.33984375 -1.11328125 0 0 Z " fill="#6A6766" transform="translate(277,305)"/>
<path d="M0 0 C0.33 0.66 0.66 1.32 1 2 C4.22973469 3.07657823 7.64450899 3.46617188 11 4 C11 4.33 11 4.66 11 5 C6.71 5 2.42 5 -2 5 C-1 1 -1 1 0 0 Z " fill="#E30B0E" transform="translate(339,230)"/>
<path d="M0 0 C0.66 0 1.32 0 2 0 C1.34 5.28 0.68 10.56 0 16 C-0.66 16 -1.32 16 -2 16 C-2 12.37 -2 8.74 -2 5 C-1.34 5 -0.68 5 0 5 C0 3.35 0 1.7 0 0 Z " fill="#E40A0B" transform="translate(162,219)"/>
<path d="M0 0 C0.99 0.33 1.98 0.66 3 1 C2.67 2.32 2.34 3.64 2 5 C2.66 5.33 3.32 5.66 4 6 C3.67 6.66 3.34 7.32 3 8 C1.68 7.67 0.36 7.34 -1 7 C-1.33 5.35 -1.66 3.7 -2 2 C-1.34 2 -0.68 2 0 2 C0 1.34 0 0.68 0 0 Z " fill="#948E8E" transform="translate(27,355)"/>
<path d="M0 0 C0.33 0.99 0.66 1.98 1 3 C-0.36328125 5.69921875 -0.36328125 5.69921875 -2.3125 8.6875 C-2.94800781 9.68136719 -3.58351563 10.67523438 -4.23828125 11.69921875 C-4.81964844 12.45847656 -5.40101563 13.21773438 -6 14 C-6.66 14 -7.32 14 -8 14 C-8.33 14.66 -8.66 15.32 -9 16 C-9 15.01 -9 14.02 -9 13 C-8.34 13 -7.68 13 -7 13 C-7 12.01 -7 11.02 -7 10 C-6 9 -5 8 -4 7 C-2.57172807 4.71169336 -1.29579662 2.36818003 0 0 Z " fill="#BBB7B7" transform="translate(309,268)"/>
<path d="M0 0 C1.0725 0.2475 2.145 0.495 3.25 0.75 C1.6875 2.8125 1.6875 2.8125 -0.75 4.75 C-4.5 4.5 -4.5 4.5 -7.75 3.75 C-5.15187156 0.32047046 -4.43092205 -0.2953948 0 0 Z " fill="#D2CDCE" transform="translate(242.75,211.25)"/>
<path d="M0 0 C0.33 1.32 0.66 2.64 1 4 C-4.75 7 -4.75 7 -7 7 C-3.86206897 0 -3.86206897 0 0 0 Z " fill="#07070A" transform="translate(184,192)"/>
<path d="M0 0 C-3.36858329 2.82960996 -6.97524198 4.28575121 -11 6 C-11.66 6.66 -12.32 7.32 -13 8 C-13.33 7.01 -13.66 6.02 -14 5 C-11.75043698 2.75043698 -9.93676737 1.99489035 -7 0.8125 C-6.113125 0.44769531 -5.22625 0.08289063 -4.3125 -0.29296875 C-2 -1 -2 -1 0 0 Z " fill="#870D0D" transform="translate(155,21)"/>
<path d="M0 0 C2.31 0.33 4.62 0.66 7 1 C3.67692308 4.93846154 3.67692308 4.93846154 0.25 5.25 C-0.4925 5.1675 -1.235 5.085 -2 5 C-1.34 3.35 -0.68 1.7 0 0 Z " fill="#BDB6B5" transform="translate(336,480)"/>
<path d="M0 0 C3.61569905 2.63848309 6.02835214 4.95293333 8 9 C8 9.99 8 10.98 8 12 C4.72257902 8.89973691 2.06895163 6.02901106 0 2 C0 1.34 0 0.68 0 0 Z " fill="#7E7A79" transform="translate(205,265)"/>
<path d="M0 0 C0.99 0 1.98 0 3 0 C3 0.66 3 1.32 3 2 C2.34 2 1.68 2 1 2 C0.80664062 2.63808594 0.61328125 3.27617187 0.4140625 3.93359375 C0.15367187 4.75988281 -0.10671875 5.58617187 -0.375 6.4375 C-0.75785156 7.67306641 -0.75785156 7.67306641 -1.1484375 8.93359375 C-2 11 -2 11 -4 12 C-4.61528766 6.92387682 -2.61658349 4.17017994 0 0 Z " fill="#0E0707" transform="translate(171,208)"/>
<path d="M0 0 C0.66 0.33 1.32 0.66 2 1 C2 4.96 2 8.92 2 13 C0.03474177 9.06948353 -0.59949581 6.32544525 -1 2 C-0.67 1.34 -0.34 0.68 0 0 Z M-1 15 C0 19 0 19 0 19 Z " fill="#750809" transform="translate(489,183)"/>
<path d="M0 0 C0.66 0.33 1.32 0.66 2 1 C1.67 1.99 1.34 2.98 1 4 C1.66 4.33 2.32 4.66 3 5 C2.34 5.66 1.68 6.32 1 7 C0.60235737 8.98821313 0.26224651 10.98944339 0 13 C-0.99 12.67 -1.98 12.34 -3 12 C-2 8 -1 4 0 0 Z " fill="#7D0306" transform="translate(21,153)"/>
<path d="M0 0 C5.78461538 4.18461538 5.78461538 4.18461538 6.875 8.3125 C6.936875 9.6428125 6.936875 9.6428125 7 11 C3.17330957 7.57611908 1.27721526 4.99275057 0 0 Z " fill="#9C5552" transform="translate(436,83)"/>
<path d="M0 0 C2.97 0.495 2.97 0.495 6 1 C5.67 2.32 5.34 3.64 5 5 C3.35 5.33 1.7 5.66 0 6 C0 4.02 0 2.04 0 0 Z " fill="#8A090B" transform="translate(368,32)"/>
<path d="M0 0 C1.72274487 2.58411731 2.68895522 4.54902656 3.6875 7.4375 C3.95949219 8.19933594 4.23148437 8.96117187 4.51171875 9.74609375 C5.04729142 12.21829721 4.80445309 13.62983284 4 16 C0.82307843 10.75117306 0.34302035 5.98511371 0 0 Z " fill="#4D0202" transform="translate(330,209)"/>
<path d="M0 0 C1.65 0 3.3 0 5 0 C5.33 0.66 5.66 1.32 6 2 C4.68 3.65 3.36 5.3 2 7 C0 4 0 4 0 0 Z " fill="#E3090B" transform="translate(170,192)"/>
<path d="M0 0 C5.80205656 5.64524422 5.80205656 5.64524422 8 9 C8 9.66 8 10.32 8 11 C7.34 11 6.68 11 6 11 C5.67 9.68 5.34 8.36 5 7 C4.01 7 3.02 7 2 7 C1.34 4.69 0.68 2.38 0 0 Z " fill="#390101" transform="translate(314,184)"/>
<path d="M0 0 C2.0625 0.4375 2.0625 0.4375 4 1 C4.33 2.32 4.66 3.64 5 5 C2.03 4.505 2.03 4.505 -1 4 C-1 1 -1 1 0 0 Z " fill="#E41318" transform="translate(274,154)"/>
<path d="M0 0 C0.66 2.31 1.32 4.62 2 7 C1.01 7 0.02 7 -1 7 C-2.33333333 5.66666667 -3.66666667 4.33333333 -5 3 C-2.25 0 -2.25 0 0 0 Z " fill="#7D0709" transform="translate(446,95)"/>
<path d="M0 0 C0.33 0.66 0.66 1.32 1 2 C0.06421005 4.35981813 -0.93347808 6.69631264 -2 9 C-2.99 9 -3.98 9 -5 9 C-5 9.66 -5 10.32 -5 11 C-5.66 10.67 -6.32 10.34 -7 10 C-3.535 5.05 -3.535 5.05 0 0 Z " fill="#CAC8C6" transform="translate(197,199)"/>
<path d="M0 0 C3.63 0.33 7.26 0.66 11 1 C9.35 2.32 7.7 3.64 6 5 C5.34 4.67 4.68 4.34 4 4 C4 3.34 4 2.68 4 2 C2.68 1.67 1.36 1.34 0 1 C0 0.67 0 0.34 0 0 Z " fill="#E6E5E5" transform="translate(250,193)"/>
<path d="M0 0 C0.66 0.33 1.32 0.66 2 1 C1.34 2.98 0.68 4.96 0 7 C-1.9375 6.1875 -1.9375 6.1875 -4 5 C-4.33 4.01 -4.66 3.02 -5 2 C-2.625 0.9375 -2.625 0.9375 0 0 Z " fill="#880709" transform="translate(118,39)"/>
<path d="M0 0 C0 1.32 0 2.64 0 4 C-3.52948291 5.66670026 -5.28272326 6.13583456 -9 5 C-7.87926138 4.16094435 -6.75325453 3.32892169 -5.625 2.5 C-4.99851562 2.0359375 -4.37203125 1.571875 -3.7265625 1.09375 C-2 0 -2 0 0 0 Z " fill="#AA6567" transform="translate(122,35)"/>
<path d="M0 0 C0 0.66 0 1.32 0 2 C0.66 2.33 1.32 2.66 2 3 C1.67 3.99 1.34 4.98 1 6 C-0.65 5.67 -2.3 5.34 -4 5 C-4 3.68 -4 2.36 -4 1 C-2 0 -2 0 0 0 Z " fill="#992D2E" transform="translate(126,33)"/>
<path d="M0 0 C3 1 3 1 4.1875 3.25 C4.99938294 5.99791147 5.16260121 8.15447889 5 11 C2.03947516 7.63576723 1.07710178 4.30840713 0 0 Z " fill="#B0ACAC" transform="translate(18,344)"/>
<path d="M0 0 C2.39763185 2.39763185 2.34280586 3.33273498 2.625 6.625 C2.69976562 7.44226563 2.77453125 8.25953125 2.8515625 9.1015625 C2.92503906 10.04128906 2.92503906 10.04128906 3 11 C-0.875 9.25 -0.875 9.25 -2 7 C-1.34 7 -0.68 7 0 7 C0 4.69 0 2.38 0 0 Z " fill="#74090D" transform="translate(483,163)"/>
<path d="M0 0 C-3.87564767 3.61139896 -3.87564767 3.61139896 -6 5 C-8.375 4.8125 -8.375 4.8125 -10 4 C-4.4 -2.2 -4.4 -2.2 0 0 Z " fill="#9A5556" transform="translate(100,53)"/>
<path d="M0 0 C0.66 0.33 1.32 0.66 2 1 C0.9375 3 0.9375 3 -1 5 C-4.6875 5.25 -4.6875 5.25 -8 5 C-5.31158141 2.74754119 -3.35358125 1.11786042 0 0 Z " fill="#B1686A" transform="translate(141,24)"/>
<path d="M0 0 C4.29 0.33 8.58 0.66 13 1 C12.67 1.66 12.34 2.32 12 3 C8.11455391 4.17466975 6.40603042 4.17293888 2.625 2.5625 C1.75875 2.046875 0.8925 1.53125 0 1 C0 0.67 0 0.34 0 0 Z " fill="#960909" transform="translate(276,3)"/>
<path d="M0 0 C0 0.66 0 1.32 0 2 C0.66 2.33 1.32 2.66 2 3 C2 3.99 2 4.98 2 6 C0.125 5.75 0.125 5.75 -2 5 C-3.25 2.9375 -3.25 2.9375 -4 1 C-2 0 -2 0 0 0 Z " fill="#9E9796" transform="translate(86,433)"/>
<path d="M0 0 C-2.98646769 1.99097846 -5.59687262 2.94124926 -9 4 C-9.66 3.34 -10.32 2.68 -11 2 C-3.57142857 -1.57142857 -3.57142857 -1.57142857 0 0 Z " fill="#CEC9CA" transform="translate(230,179)"/>
<path d="M0 0 C1.32 0.99 2.64 1.98 4 3 C3.67 4.32 3.34 5.64 3 7 C1.68 7.33 0.36 7.66 -1 8 C-1 7.34 -1 6.68 -1 6 C-0.34 6 0.32 6 1 6 C1 5.01 1 4.02 1 3 C0.34 3 -0.32 3 -1 3 C-0.67 2.01 -0.34 1.02 0 0 Z " fill="#7A0E11" transform="translate(458,114)"/>
<path d="M0 0 C4.10801767 1.18676066 5.89448334 1.89448334 9 5 C6.03 4.67 3.06 4.34 0 4 C-0.33 3.01 -0.66 2.02 -1 1 C-0.67 0.67 -0.34 0.34 0 0 Z " fill="#AB6765" transform="translate(365,28)"/>
<path d="M0 0 C0 0.66 0 1.32 0 2 C-3.82320557 3.42258812 -6.91281305 4.24042276 -11 4 C-7.30030748 0.96096686 -4.76995305 0 0 0 Z " fill="#BBB2B2" transform="translate(333,485)"/>
<path d="M0 0 C0.99 0.66 1.98 1.32 3 2 C3 2.66 3 3.32 3 4 C3.99 4.33 4.98 4.66 6 5 C5.67 5.99 5.34 6.98 5 8 C2.69 6.02 0.38 4.04 -2 2 C-1.34 1.34 -0.68 0.68 0 0 Z " fill="#AFABAA" transform="translate(88,438)"/>
<path d="M0 0 C0 0.99 0 1.98 0 3 C-1.53125 4.38671875 -1.53125 4.38671875 -3.5 5.6875 C-4.47453125 6.34298828 -4.47453125 6.34298828 -5.46875 7.01171875 C-5.9740625 7.33785156 -6.479375 7.66398437 -7 8 C-7.66 7.67 -8.32 7.34 -9 7 C-6.24479785 4.04070881 -3.53372712 1.96318174 0 0 Z " fill="#797574" transform="translate(282,279)"/>
<path d="M0 0 C1.98 0 3.96 0 6 0 C5.67 1.65 5.34 3.3 5 5 C2 4 2 4 0.8125 1.9375 C0.544375 1.298125 0.27625 0.65875 0 0 Z " fill="#DD0B0A" transform="translate(192,168)"/>
<path d="M0 0 C1.5 1.25 1.5 1.25 3 3 C3 4.32 3 5.64 3 7 C1.0625 6.625 1.0625 6.625 -1 6 C-1.33 5.34 -1.66 4.68 -2 4 C-1.0625 1.875 -1.0625 1.875 0 0 Z " fill="#984948" transform="translate(462,117)"/>
<path d="M0 0 C2.25 -0.25 2.25 -0.25 5 0 C7.3125 2 7.3125 2 9 4 C3.48 4.368 3.48 4.368 1.125 2.5625 C0 1 0 1 0 0 Z " fill="#A15151" transform="translate(390,45)"/>
<path d="M0 0 C4.95 1.98 4.95 1.98 10 4 C10 4.33 10 4.66 10 5 C7.03 4.67 4.06 4.34 1 4 C0.67 2.68 0.34 1.36 0 0 Z " fill="#AEA7A7" transform="translate(160,481)"/>
<path d="M0 0 C0.93065133 2.60582371 1.14917407 3.64198224 0.0625 6.25 C-0.4634375 7.11625 -0.4634375 7.11625 -1 8 C-2.32 7.67 -3.64 7.34 -5 7 C-3.25 3.125 -3.25 3.125 -1 2 C-0.67 1.34 -0.34 0.68 0 0 Z " fill="#ADA4A5" transform="translate(426,421)"/>
<path d="M0 0 C0.99 0.33 1.98 0.66 3 1 C-1.455 3.97 -1.455 3.97 -6 7 C-4.14418503 3.28837006 -3.44285416 1.98224936 0 0 Z " fill="#706C6C" transform="translate(290,294)"/>
<path d="M0 0 C1.98 0.66 3.96 1.32 6 2 C6 2.66 6 3.32 6 4 C5.01 4 4.02 4 3 4 C2.67 4.66 2.34 5.32 2 6 C0 2.25 0 2.25 0 0 Z " fill="#840808" transform="translate(384,41)"/>
<path d="M0 0 C3.40424844 1.13474948 4.21653709 1.96811304 6 5 C5.67 5.99 5.34 6.98 5 8 C2.5 5.6875 2.5 5.6875 0 3 C0 2.01 0 1.02 0 0 Z " fill="#B7AEAF" transform="translate(76,428)"/>
<path d="M0 0 C4 1 4 1 5.8125 2.875 C6.204375 3.57625 6.59625 4.2775 7 5 C6.67 5.99 6.34 6.98 6 8 C4.02 5.36 2.04 2.72 0 0 Z " fill="#B2ADAD" transform="translate(53,405)"/>
<path d="M0 0 C0.66 0 1.32 0 2 0 C1.6875 2.875 1.6875 2.875 1 6 C0.01 6.66 -0.98 7.32 -2 8 C-2.33 6.68 -2.66 5.36 -3 4 C-2.01 4 -1.02 4 0 4 C0 2.68 0 1.36 0 0 Z " fill="#9F9A9B" transform="translate(476,351)"/>
<path d="M0 0 C0.99 0.33 1.98 0.66 3 1 C1.6875 3.5 1.6875 3.5 0 6 C-0.99 6 -1.98 6 -3 6 C-2.625 3.5625 -2.625 3.5625 -2 1 C-1.34 0.67 -0.68 0.34 0 0 Z " fill="#DEDAD9" transform="translate(324,289)"/>
<path d="M0 0 C0.99 0.33 1.98 0.66 3 1 C3.6875 3.0625 3.6875 3.0625 4 5 C2.68 4.67 1.36 4.34 0 4 C0 4.99 0 5.98 0 7 C-0.66 6.67 -1.32 6.34 -2 6 C-1.34 4.02 -0.68 2.04 0 0 Z " fill="#DEDAD9" transform="translate(283,207)"/>
<path d="M0 0 C0.33 0.99 0.66 1.98 1 3 C-4.75 6.875 -4.75 6.875 -7 8 C-5.50902342 4.2047869 -3.24299151 2.38957269 0 0 Z " fill="#A5716E" transform="translate(65,82)"/>
<path d="M0 0 C0.33 0.66 0.66 1.32 1 2 C3.52733235 2.65555119 3.52733235 2.65555119 6 3 C6 3.33 6 3.66 6 4 C-0.52307692 4.36923077 -0.52307692 4.36923077 -2.9375 2.5 C-3.4634375 1.7575 -3.4634375 1.7575 -4 1 C-2.68 0.67 -1.36 0.34 0 0 Z " fill="#ABA1A4" transform="translate(184,488)"/>
<path d="M0 0 C0.99 0.33 1.98 0.66 3 1 C3 1.99 3 2.98 3 4 C1.1875 5.0625 1.1875 5.0625 -1 6 C-1.99 5.67 -2.98 5.34 -4 5 C-3.01 4.34 -2.02 3.68 -1 3 C-0.67 2.01 -0.34 1.02 0 0 Z " fill="#B4ACAC" transform="translate(366,467)"/>
<path d="M0 0 C3 3.75 3 3.75 3 6 C3.66 6 4.32 6 5 6 C5 6.66 5 7.32 5 8 C2.53199953 6.84826645 0.95216435 5.95216435 -1 4 C-0.625 1.875 -0.625 1.875 0 0 Z " fill="#A09899" transform="translate(61,410)"/>
<path d="M0 0 C0.99 0 1.98 0 3 0 C3.1875 2.875 3.1875 2.875 3 6 C2.01 6.66 1.02 7.32 0 8 C0 5.36 0 2.72 0 0 Z " fill="#9D9796" transform="translate(486,321)"/>
<path d="M0 0 C1.32 0.33 2.64 0.66 4 1 C4.33 2.32 4.66 3.64 5 5 C3.68 4.67 2.36 4.34 1 4 C0.67 2.68 0.34 1.36 0 0 Z " fill="#E0DDDB" transform="translate(179,297)"/>
<path d="M0 0 C0.33 0 0.66 0 1 0 C1.28571429 7.42857143 1.28571429 7.42857143 -1 11 C-2.26264601 6.70700357 -1.62950412 4.12168689 0 0 Z " fill="#B6AEAE" transform="translate(495,294)"/>
<path d="M0 0 C0.33 1.32 0.66 2.64 1 4 C-0.98 5.32 -2.96 6.64 -5 8 C-3.62845496 5.04590299 -2.01136276 2.55991624 0 0 Z " fill="#380101" transform="translate(182,187)"/>
<path d="M0 0 C0.99 0 1.98 0 3 0 C3 0.99 3 1.98 3 3 C3.99 3.33 4.98 3.66 6 4 C3.92446352 4.5534764 2.15634036 5 0 5 C-0.5625 3.0625 -0.5625 3.0625 -1 1 C-0.67 0.67 -0.34 0.34 0 0 Z " fill="#880C0C" transform="translate(375,35)"/>
<path d="M0 0 C2 2 2 2 2 6 C0.35 6 -1.3 6 -3 6 C-2.01 4.02 -1.02 2.04 0 0 Z " fill="#BCB6B6" transform="translate(347,475)"/>
<path d="M0 0 C-0.25 1.875 -0.25 1.875 -1 4 C-3.0625 5.25 -3.0625 5.25 -5 6 C-5.33 5.34 -5.66 4.68 -6 4 C-2.25 0 -2.25 0 0 0 Z " fill="#B8B1B3" transform="translate(422,430)"/>
<path d="M0 0 C1.64350079 3.28700157 2.41321669 5.47930015 3 9 C2.01 9 1.02 9 0 9 C0 6.03 0 3.06 0 0 Z " fill="#9F9999" transform="translate(5,296)"/>
<path d="M0 0 C2.31 0 4.62 0 7 0 C7.33 1.65 7.66 3.3 8 5 C4.62496331 3.8141763 2.35277269 2.72426311 0 0 Z " fill="#BCB7B7" transform="translate(214,297)"/>
<path d="M0 0 C0 0.99 0 1.98 0 3 C-2.5 5.1875 -2.5 5.1875 -5 7 C-4.75 4.625 -4.75 4.625 -4 2 C-1.9375 0.6875 -1.9375 0.6875 0 0 Z " fill="#797574" transform="translate(289,272)"/>
<path d="M0 0 C4.05606165 0.46800711 7.46588679 0.87953208 11 3 C4.6 3.36923077 4.6 3.36923077 1.5625 1.5 C1.046875 1.005 0.53125 0.51 0 0 Z " fill="#858181" transform="translate(233,270)"/>
<path d="M0 0 C2.78388975 1.70625501 3.85384206 2.47626739 4.75 5.6875 C4.8325 6.450625 4.915 7.21375 5 8 C4.01 7.67 3.02 7.34 2 7 C0.8125 3.4375 0.8125 3.4375 0 0 Z " fill="#9E585A" transform="translate(446,95)"/>
<path d="M0 0 C-1.98 1.32 -3.96 2.64 -6 4 C-6.33 3.34 -6.66 2.68 -7 2 C-7.66 1.67 -8.32 1.34 -9 1 C-3.375 -1.125 -3.375 -1.125 0 0 Z " fill="#990606" transform="translate(199,8)"/>
</svg>
